<svg width="446" height="544" viewBox="0 0 446 544" fill="none" xmlns="http://www.w3.org/2000/svg">
<path d="M313.972 540.459L136.669 430.278C135.109 429.31 133.814 427.918 132.913 426.241C132.012 424.563 131.538 422.66 131.538 420.723C131.538 418.785 132.012 416.882 132.913 415.205C133.814 413.528 135.109 412.135 136.669 411.168L154.159 399.298C157.179 397.426 160.602 396.441 164.086 396.441C167.57 396.441 170.993 397.426 174.012 399.298L351.34 509.492C352.899 510.459 354.195 511.851 355.095 513.529C355.996 515.206 356.47 517.109 356.47 519.047C356.47 520.984 355.996 522.887 355.095 524.564C354.195 526.242 352.899 527.634 351.34 528.601L333.849 540.459C330.829 542.34 327.4 543.331 323.911 543.331C320.421 543.331 316.992 542.34 313.972 540.459Z" fill="#E0E0E0"/>
<path d="M44.383 440.007C65.633 440.007 82.8596 429.361 82.8596 416.228C82.8596 403.094 65.633 392.448 44.383 392.448C23.133 392.448 5.90649 403.094 5.90649 416.228C5.90649 429.361 23.133 440.007 44.383 440.007Z" fill="#F7FF93"/>
<path d="M376.846 445.456L393.722 455.899C393.722 455.899 385.103 426.748 389.695 397.364C391.431 386.259 395.156 380.745 396.458 377.775C397.76 374.804 407.849 356.447 398.869 348.04C389.888 339.633 368.999 356.537 370.132 401.775C370.647 416.582 372.903 431.259 376.846 445.456Z" fill="#2DE14A"/>
<path opacity="0.5" d="M376.846 445.456L393.722 455.899C393.722 455.899 385.103 426.748 389.695 397.364C391.431 386.259 395.156 380.745 396.458 377.775C397.76 374.804 407.849 356.447 398.869 348.04C389.888 339.633 368.999 356.537 370.132 401.775C370.647 416.582 372.903 431.259 376.846 445.456Z" fill="black"/>
<path d="M384.693 450.956C384.57 450.959 384.45 450.921 384.348 450.846C384.247 450.772 384.169 450.665 384.127 450.541C384.066 450.347 377.617 431.38 377.822 400.893C378.027 370.406 392.914 353.852 393.059 353.696C393.115 353.635 393.181 353.587 393.255 353.554C393.328 353.521 393.407 353.504 393.487 353.504C393.566 353.504 393.645 353.521 393.718 353.554C393.792 353.587 393.858 353.635 393.914 353.696C393.971 353.757 394.016 353.828 394.046 353.907C394.077 353.986 394.093 354.071 394.093 354.157C394.093 354.242 394.077 354.327 394.046 354.406C394.016 354.485 393.971 354.557 393.914 354.617C393.77 354.773 379.233 370.834 379.028 400.906C378.823 430.978 385.187 449.918 385.26 450.1C385.314 450.262 385.306 450.44 385.239 450.596C385.171 450.751 385.048 450.872 384.898 450.93C384.832 450.952 384.762 450.961 384.693 450.956Z" fill="white"/>
<path d="M383.885 449.918L406.957 464.189C409.361 465.718 412.212 466.216 414.942 465.584C417.672 464.951 420.08 463.235 421.687 460.777C423.214 458.219 423.858 455.166 423.507 452.15C422.398 439.254 417.191 436.283 423.567 430.536C429.944 424.789 431.607 424.387 431.246 418.86C430.884 413.334 427.376 410.921 425.713 408.741C424.05 406.562 419.445 401.995 422.579 395.249C425.713 388.503 429.992 381.978 423.507 378.994C419.638 377.203 413.189 379.59 408.946 384.546C404.703 389.502 401.207 393.07 397.145 394.263C393.083 395.457 384.621 395.651 384.982 403.189C385.344 410.726 387.2 413.308 385.537 416.668C382.403 422.947 368.77 426.515 383.885 449.918Z" fill="#2DE14A"/>
<path d="M395.288 457.599C395.138 457.594 394.995 457.53 394.884 457.421C394.773 457.311 394.703 457.163 394.686 457.002C394.686 456.561 391.142 412.037 419.589 382.406C419.707 382.302 419.856 382.249 420.008 382.259C420.16 382.268 420.303 382.339 420.408 382.458C420.513 382.576 420.573 382.732 420.576 382.896C420.578 383.06 420.523 383.219 420.421 383.34C392.383 412.543 395.855 456.444 395.891 456.885C395.905 457.055 395.855 457.224 395.754 457.355C395.652 457.487 395.507 457.569 395.349 457.586L395.288 457.599Z" fill="white"/>
<path d="M399.857 419.276C399.705 419.276 399.559 419.215 399.447 419.104C399.335 418.994 399.267 418.842 399.254 418.679C399.002 415.228 398.099 411.87 396.601 408.807C395.102 405.745 393.04 403.043 390.539 400.867C390.474 400.818 390.419 400.755 390.376 400.683C390.333 400.61 390.305 400.529 390.291 400.445C390.278 400.361 390.28 400.274 390.298 400.191C390.315 400.107 390.348 400.028 390.395 399.959C390.439 399.889 390.496 399.829 390.562 399.784C390.629 399.738 390.703 399.707 390.78 399.693C390.858 399.678 390.937 399.68 391.014 399.699C391.09 399.718 391.163 399.753 391.226 399.803C393.891 402.077 396.088 404.922 397.677 408.158C399.267 411.394 400.214 414.95 400.46 418.601C400.473 418.775 400.423 418.947 400.319 419.08C400.215 419.214 400.066 419.298 399.905 419.315L399.857 419.276Z" fill="white"/>
<path d="M397.892 426.917C397.747 426.918 397.605 426.863 397.494 426.761C397.375 426.646 397.302 426.486 397.29 426.314C397.279 426.142 397.331 425.972 397.434 425.84C397.723 425.477 404.847 417.018 421.542 419.263C421.7 419.285 421.844 419.374 421.941 419.511C422.038 419.647 422.081 419.819 422.061 419.989C422.04 420.16 421.957 420.316 421.831 420.422C421.705 420.529 421.545 420.578 421.386 420.56C405.354 418.393 398.399 426.618 398.326 426.696C398.271 426.762 398.205 426.816 398.13 426.854C398.055 426.892 397.975 426.913 397.892 426.917Z" fill="white"/>
<path d="M308.572 527.291L152.641 430.394C141.635 423.557 132.715 405.213 132.715 389.425V30.0672C132.715 14.2788 141.635 7.02682 152.641 13.8637L308.572 110.76C319.577 117.597 328.497 135.941 328.497 151.73V511.087C328.497 526.863 319.577 534.128 308.572 527.291Z" fill="#455A64"/>
<path d="M326.532 99.4609L170.589 2.5641C165.888 -0.354867 161.573 -0.692171 158.161 1.09813C157.744 1.32322 157.341 1.57896 156.956 1.86355L139.477 12.7999C142.997 10.5296 147.602 10.6983 152.653 13.8378L308.584 110.735C319.589 117.571 328.509 135.916 328.509 151.704V511.061C328.509 519.416 326.014 525.332 322.036 528.134L339.285 517.327C343.685 514.811 346.518 508.648 346.518 499.814V140.456C346.518 124.642 337.538 106.298 326.532 99.4609Z" fill="#E1BAFF"/>
<path d="M328.497 151.704V511.061C328.497 519.416 326.002 525.332 322.024 528.134L339.285 517.327C343.685 514.81 346.518 508.648 346.518 499.813V140.456L328.557 151.678L328.497 151.704Z" fill="#E1BAFF"/>
<path d="M346.458 168.335L328.497 179.492V188.21L346.458 177.04V168.335Z" fill="#37474F"/>
<path d="M338.586 226.313C336.983 227.311 335.681 226.248 335.681 223.951V205.205C335.698 204.033 335.969 202.882 336.473 201.843C336.978 200.805 337.702 199.908 338.586 199.225C340.189 198.226 341.491 199.225 341.491 201.586V220.332C341.475 221.504 341.204 222.655 340.699 223.694C340.195 224.732 339.471 225.629 338.586 226.313Z" fill="#37474F"/>
<path d="M335.669 224.003V205.205C335.686 204.033 335.957 202.882 336.461 201.843C336.966 200.805 337.69 199.908 338.574 199.225C338.839 199.026 339.147 198.904 339.468 198.872C339.789 198.84 340.113 198.899 340.407 199.043L338.225 197.836C337.926 197.682 337.595 197.615 337.265 197.642C336.935 197.67 336.617 197.79 336.344 197.992C335.459 198.675 334.734 199.572 334.227 200.61C333.721 201.649 333.447 202.8 333.427 203.973V222.706C333.382 223.179 333.449 223.657 333.622 224.095C333.795 224.533 334.068 224.916 334.416 225.21L336.694 226.507C336.331 226.226 336.045 225.846 335.865 225.405C335.685 224.965 335.617 224.481 335.669 224.003Z" fill="#455A64"/>
<path d="M338.586 271.68C336.983 272.679 335.681 271.68 335.681 269.319V250.573C335.698 249.401 335.97 248.25 336.475 247.211C336.979 246.173 337.702 245.276 338.586 244.592C340.189 243.593 341.491 244.592 341.491 246.966V265.699C341.477 266.872 341.206 268.024 340.702 269.063C340.197 270.102 339.472 270.998 338.586 271.68Z" fill="#37474F"/>
<path d="M335.669 269.319V250.573C335.686 249.401 335.958 248.25 336.463 247.212C336.967 246.173 337.69 245.276 338.574 244.592C338.84 244.397 339.148 244.277 339.469 244.245C339.789 244.214 340.112 244.27 340.406 244.41L338.225 243.191C337.928 243.03 337.596 242.959 337.264 242.986C336.933 243.014 336.615 243.138 336.344 243.347C335.457 244.028 334.73 244.924 334.223 245.963C333.717 247.002 333.444 248.154 333.427 249.327V268.112C333.381 268.586 333.447 269.064 333.62 269.502C333.793 269.94 334.067 270.324 334.416 270.616L336.694 271.914C336.316 271.626 336.021 271.231 335.84 270.773C335.659 270.314 335.6 269.811 335.669 269.319Z" fill="#455A64"/>
<path d="M303.123 120.841L149.892 25.5914C149.253 25.1954 148.528 24.9863 147.79 24.9849C147.052 24.9834 146.327 25.1896 145.686 25.583C145.045 25.9764 144.511 26.5433 144.137 27.2275C143.762 27.9117 143.561 28.6894 143.552 29.4833V389.425C143.552 401.438 151.471 416.188 161.139 422.195L310.609 515.122C311.318 515.561 312.121 515.791 312.939 515.791C313.757 515.79 314.56 515.558 315.268 515.118C315.977 514.677 316.565 514.045 316.974 513.283C317.383 512.52 317.599 511.656 317.6 510.776V147.864C317.66 137.952 311.127 125.796 303.123 120.841Z" fill="#BA68C8"/>
<path opacity="0.9" d="M303.123 120.841L149.892 25.5914C149.253 25.1954 148.528 24.9863 147.79 24.9849C147.052 24.9834 146.327 25.1896 145.686 25.583C145.045 25.9764 144.511 26.5433 144.137 27.2275C143.762 27.9117 143.561 28.6894 143.552 29.4833V389.425C143.552 401.438 151.471 416.188 161.139 422.195L310.609 515.122C311.318 515.561 312.121 515.791 312.939 515.791C313.757 515.79 314.56 515.558 315.268 515.118C315.977 514.677 316.565 514.045 316.974 513.283C317.383 512.52 317.599 511.656 317.6 510.776V147.864C317.66 137.952 311.127 125.796 303.123 120.841Z" fill="white"/>
<path d="M195.722 50.4612L198.096 61.2159L248.892 92.7408L257.667 87.7072L195.722 50.4612Z" fill="#455A64"/>
<path d="M210.657 60.8527C210.657 62.643 209.451 63.3565 208.053 62.4743C207.302 61.938 206.679 61.2196 206.233 60.377C205.787 59.5343 205.531 58.5908 205.485 57.6224C205.485 55.845 206.691 55.1185 208.089 56.0137C208.839 56.5473 209.463 57.2632 209.909 58.1038C210.355 58.9443 210.611 59.886 210.657 60.8527Z" fill="#263238"/>
<path d="M244.878 83.6205C244.6 83.6181 244.327 83.5424 244.083 83.4L218.142 67.8321C217.776 67.6006 217.508 67.2242 217.396 66.7832C217.285 66.3422 217.337 65.8716 217.543 65.4719C217.75 65.0723 218.093 64.7752 218.5 64.6441C218.907 64.513 219.345 64.5584 219.721 64.7705L245.674 80.3383C245.989 80.527 246.237 80.8232 246.379 81.1804C246.521 81.5375 246.549 81.9353 246.458 82.3112C246.367 82.6871 246.162 83.0197 245.876 83.2567C245.59 83.4937 245.239 83.6217 244.878 83.6205Z" fill="#263238"/>
<path d="M153.762 181.114C158.652 174.649 161.114 166.446 160.662 158.123C160.209 149.801 156.874 141.963 151.316 136.156C145.758 130.349 138.379 126.996 130.636 126.757C122.893 126.518 115.348 129.41 109.489 134.864C103.63 140.318 99.8838 147.938 98.9884 156.219C98.093 164.5 100.114 172.841 104.652 179.597C109.191 186.354 115.917 191.034 123.504 192.715C131.091 194.396 138.988 192.955 145.637 188.677L160.729 195.735L153.762 181.114Z" fill="#00FFF0"/>
<path opacity="0.4" d="M153.762 181.114C158.652 174.649 161.114 166.446 160.662 158.123C160.209 149.801 156.874 141.963 151.316 136.156C145.758 130.349 138.379 126.996 130.636 126.757C122.893 126.518 115.348 129.41 109.489 134.864C103.63 140.318 99.8838 147.938 98.9884 156.219C98.093 164.5 100.114 172.841 104.652 179.597C109.191 186.354 115.917 191.034 123.504 192.715C131.091 194.396 138.988 192.955 145.637 188.677L160.729 195.735L153.762 181.114Z" fill="black"/>
<path d="M118.274 158.281C118.274 157.775 117.937 157.49 117.322 157.49C115.896 157.691 114.564 158.367 113.513 159.423L111.801 155.842C113.603 154.383 115.78 153.559 118.033 153.481C120.926 153.481 123.12 155.116 123.12 157.555C123.12 159.293 121.915 160.967 120.372 162.64L118.214 164.937H123.313V168.751H112.356V165.624L117.238 160.188C117.763 159.688 118.127 159.02 118.274 158.281Z" fill="#F7FF93"/>
<path d="M132.233 153.702L128.906 162.29H130.268V159.397H134.463V162.29H136.054V165.832H134.463V168.751H130.268V165.832H124.301V162.614L127.918 153.702H132.233Z" fill="#F7FF93"/>
<path d="M149 161.265V168.751H144.516V162.653C144.542 162.455 144.528 162.253 144.475 162.06C144.422 161.868 144.331 161.691 144.209 161.539C144.087 161.388 143.936 161.267 143.766 161.184C143.597 161.101 143.413 161.058 143.226 161.058C142.346 161.058 141.792 161.797 141.792 162.939V168.751H137.308V152.846H141.792V158.697C142.143 158.1 142.631 157.612 143.21 157.28C143.789 156.947 144.439 156.783 145.095 156.803C145.632 156.788 146.166 156.895 146.663 157.118C147.159 157.34 147.606 157.673 147.975 158.094C148.343 158.515 148.625 159.015 148.802 159.562C148.978 160.108 149.046 160.689 149 161.265Z" fill="#F7FF93"/>
<path d="M295.216 281.812V443.004C295.218 444.827 294.774 446.619 293.929 448.198C293.084 449.778 291.867 451.091 290.4 452.003C288.934 452.916 287.27 453.397 285.576 453.398C283.882 453.398 282.218 452.919 280.751 452.007L200.085 401.879L185.789 393.005C180.866 389.942 176.777 385.541 173.93 380.243C171.082 374.946 169.577 368.937 169.564 362.817V201.612C169.562 199.789 170.006 197.997 170.851 196.417C171.696 194.837 172.913 193.525 174.38 192.612C175.846 191.699 177.51 191.218 179.204 191.218C180.898 191.217 182.562 191.697 184.029 192.608L279.015 251.623C283.94 254.682 288.03 259.082 290.874 264.381C293.718 269.681 295.215 275.692 295.216 281.812Z" fill="#E1BAFF"/>
<path opacity="0.5" d="M295.216 281.812V443.004C295.218 444.827 294.774 446.619 293.929 448.198C293.084 449.778 291.867 451.091 290.4 452.003C288.934 452.916 287.27 453.397 285.576 453.398C283.882 453.398 282.218 452.919 280.751 452.007L200.085 401.879L185.789 393.005C180.866 389.942 176.777 385.541 173.93 380.243C171.082 374.946 169.577 368.937 169.564 362.817V201.612C169.562 199.789 170.006 197.997 170.851 196.417C171.696 194.837 172.913 193.525 174.38 192.612C175.846 191.699 177.51 191.218 179.204 191.218C180.898 191.217 182.562 191.697 184.029 192.608L279.015 251.623C283.94 254.682 288.03 259.082 290.874 264.381C293.718 269.681 295.215 275.692 295.216 281.812Z" fill="#E1BAFF"/>
<path d="M248.747 377.191C248.747 377.191 263.851 404.149 252.942 434.545L200.049 401.879L248.747 377.191Z" fill="#263238"/>
<path d="M272.834 256.069C273.978 246.078 267.379 236.981 258.095 235.751C248.812 234.521 240.36 241.623 239.217 251.614C238.073 261.605 244.672 270.702 253.956 271.932C263.239 273.163 271.691 266.06 272.834 256.069Z" fill="#263238"/>
<path d="M256.112 202.714C256.112 202.714 261.308 193.633 262.899 194.295C264.49 194.956 261.862 203.609 261.862 203.609C261.862 203.609 269.721 205.374 268.263 207.501C266.804 209.629 257.197 209.123 257.197 209.123L256.112 202.714Z" fill="#263238"/>
<path d="M259.729 226.118C256.112 255.359 233.21 255.359 233.21 255.359L185.235 232.63C185.235 232.63 181.618 229.218 180.509 221.383C180.084 218.173 180.084 214.914 180.509 211.705C180.509 211.705 180.509 211.64 180.509 211.614C182.04 199.315 190.587 186.095 209.198 182.035C213.277 181.149 217.429 180.714 221.59 180.737C223.603 180.73 225.614 180.838 227.617 181.062C242.082 182.593 252.219 189.858 257.053 201.157C258.14 203.708 258.949 206.385 259.463 209.136C260.445 214.739 260.534 220.482 259.729 226.118Z" fill="#263238"/>
<path d="M144.552 282.682C144.552 282.682 127.52 282.046 120.962 299.91C120.962 299.91 128.195 305.164 137.681 299.91C147.168 294.656 144.552 282.682 144.552 282.682Z" fill="#CEBA03"/>
<path opacity="0.5" d="M144.552 282.682C144.552 282.682 127.52 282.046 120.962 299.91C120.962 299.91 128.195 305.164 137.681 299.91C147.168 294.656 144.552 282.682 144.552 282.682Z" fill="black"/>
<path d="M144.07 291.282C144.07 291.282 139.248 268.735 136.705 268.462C134.162 268.19 133.667 275.338 133.872 279.373L127.845 265.414C127.654 264.98 127.382 264.593 127.047 264.276C126.711 263.96 126.319 263.721 125.895 263.574C125.47 263.427 125.022 263.375 124.578 263.421C124.134 263.468 123.703 263.612 123.313 263.844C117.286 267.412 106.715 278.257 129.003 305.073L144.07 291.282Z" fill="#945959"/>
<path d="M205.787 275.689L202.171 275.183C198.526 274.663 194.819 275.196 191.429 276.728C188.04 278.26 185.09 280.736 182.884 283.901L161.368 314.725L144.492 282.681C144.492 282.681 142.467 304.476 120.902 299.91L144.058 341.852C145.523 344.507 147.563 346.742 150.004 348.367C152.444 349.991 155.213 350.957 158.075 351.183C160.937 351.408 163.807 350.886 166.441 349.662C169.075 348.437 171.396 346.545 173.205 344.148L193.022 317.929L205.787 275.689Z" fill="#F6DE00"/>
<path d="M251.713 347.625C246.891 360.78 246.361 363.348 249.302 369.926C251.35 374.783 252.965 379.84 254.124 385.026C254.124 385.026 231.775 411.985 199.965 401.892L185.669 393.018C182.695 391.173 180.017 388.825 177.737 386.064L182.088 351.14C182.308 349.302 182.134 347.434 181.582 345.679L177.014 331.265C174.784 324.226 174.453 316.651 176.057 309.416C177.661 302.182 181.135 295.585 186.078 290.387L201.435 274.235L241.768 279.788L247.795 281.643C251.741 282.871 255.142 285.59 257.374 289.301C259.607 293.012 260.52 297.465 259.946 301.842C257.969 317.151 254.738 339.361 251.713 347.625Z" fill="#F18200"/>
<path d="M227.388 308.329L219.311 300.922C218.456 300.134 217.425 299.6 216.319 299.373C215.214 299.145 214.072 299.232 213.007 299.624L203.243 303.244L201.929 297.354C201.724 296.438 201.349 295.575 200.826 294.819C200.303 294.063 199.643 293.429 198.886 292.955C198.129 292.481 197.291 292.177 196.422 292.061C195.553 291.946 194.671 292.02 193.829 292.281L189.598 293.579L196.758 278.815C199.096 274.007 202.697 270.045 207.113 267.425L209.921 265.764L233.125 267.061C233.125 267.061 241.768 270.953 241.768 279.71L227.388 308.251" fill="#F6DE00"/>
<path d="M233.222 278.128L209.958 297.64V235.511H233.222V278.128Z" fill="#945959"/>
<path d="M210.319 273.003L203.243 303.296L233.125 278.128L210.319 273.003Z" fill="#945959"/>
<path d="M209.958 268.502C215.131 266.435 219.859 263.257 223.857 259.163C227.854 255.068 231.036 250.142 233.21 244.683V235.511H209.945L209.958 268.502Z" fill="#703838"/>
<path d="M214.972 189.469C206.148 189.469 187.392 194.762 185.223 219.618C183.053 244.475 185.15 263.727 197.06 265.595C208.969 267.464 236.645 258.162 240.358 225.988C244.07 193.815 223.566 189.469 214.972 189.469Z" fill="#948059"/>
<path d="M201.086 230.14V244.786L193.106 242.153L201.086 230.14Z" fill="#703838"/>
<path d="M209.957 235.654C211.489 235.654 212.73 234.318 212.73 232.67C212.73 231.022 211.489 229.686 209.957 229.686C208.426 229.686 207.185 231.022 207.185 232.67C207.185 234.318 208.426 235.654 209.957 235.654Z" fill="#263238"/>
<path d="M194.48 230.594C194.478 231.183 194.313 231.759 194.007 232.248C193.701 232.737 193.267 233.117 192.76 233.341C192.253 233.565 191.696 233.622 191.159 233.506C190.622 233.389 190.13 233.104 189.743 232.686C189.356 232.268 189.094 231.737 188.988 231.158C188.882 230.58 188.937 229.98 189.147 229.436C189.358 228.891 189.713 228.426 190.169 228.099C190.624 227.772 191.16 227.597 191.708 227.597C192.073 227.597 192.434 227.675 192.771 227.825C193.109 227.976 193.415 228.197 193.672 228.475C193.93 228.754 194.134 229.084 194.273 229.448C194.411 229.811 194.482 230.201 194.48 230.594Z" fill="#263238"/>
<path d="M188.32 224.367L193.745 220.903C193.745 220.903 191.672 218.581 189.598 219.969C187.525 221.357 188.32 224.367 188.32 224.367Z" fill="#263238"/>
<path d="M197.337 250.728C199.979 250.936 202.608 250.177 204.798 248.575C204.798 248.575 205.317 252.817 202.014 253.621C198.711 254.426 197.337 250.728 197.337 250.728Z" fill="#703838"/>
<path d="M192.6 197.927C192.6 197.927 195.914 232.241 239.273 233.318C239.273 233.318 252.376 199.212 226.484 188.133C200.591 177.053 192.6 197.927 192.6 197.927Z" fill="#263238"/>
<path d="M252.038 228.181L246.71 224.86C244.685 223.562 241.889 223.744 238.791 225.664C232.643 229.478 227.653 238.78 227.653 246.421C227.653 250.248 228.858 252.908 230.931 254.205L236.163 257.448L236.464 257.63L236.645 257.747C238.622 258.785 241.262 258.538 244.167 256.735C250.314 252.843 255.305 243.619 255.305 235.978C255.269 232.112 254.027 229.439 252.038 228.181Z" fill="#F6DE00"/>
<path d="M251.996 247.721C256.343 239.617 256.343 230.858 251.996 228.157C247.649 225.456 240.601 229.836 236.254 237.939C231.907 246.043 231.907 254.802 236.254 257.503C240.601 260.204 247.649 255.825 251.996 247.721Z" fill="#CEBA03"/>
<path opacity="0.5" d="M251.996 247.721C256.343 239.617 256.343 230.858 251.996 228.157C247.649 225.456 240.601 229.836 236.254 237.939C231.907 246.043 231.907 254.802 236.254 257.503C240.601 260.204 247.649 255.825 251.996 247.721Z" fill="black"/>
<path d="M254.172 235.381L250.555 233.111C249.181 232.229 247.265 232.345 245.143 233.656C242.927 235.214 241.083 237.312 239.759 239.78C238.436 242.248 237.671 245.016 237.525 247.861C237.525 250.456 238.381 252.311 239.767 253.167L243.383 255.386C243.447 255.436 243.516 255.48 243.588 255.515L243.709 255.593C244.556 255.939 245.47 256.056 246.369 255.934C247.269 255.812 248.127 255.455 248.868 254.893C251.082 253.335 252.926 251.239 254.249 248.774C255.572 246.309 256.339 243.543 256.486 240.7C256.39 238.067 255.546 236.237 254.172 235.381Z" fill="#F6DE00"/>
<path d="M256.39 240.674C256.242 243.516 255.476 246.282 254.153 248.747C252.83 251.213 250.986 253.309 248.772 254.866C244.553 257.461 241.141 255.359 241.141 250.131C241.284 247.286 242.05 244.517 243.376 242.051C244.702 239.584 246.551 237.49 248.772 235.938C252.978 233.318 256.39 235.432 256.39 240.674Z" fill="#CEBA03"/>
<path opacity="0.3" d="M256.39 240.674C256.242 243.516 255.476 246.282 254.153 248.747C252.83 251.213 250.986 253.309 248.772 254.866C244.553 257.461 241.141 255.359 241.141 250.131C241.284 247.286 242.05 244.517 243.376 242.051C244.702 239.584 246.551 237.49 248.772 235.938C252.978 233.318 256.39 235.432 256.39 240.674Z" fill="black"/>
<path d="M235.488 182.775C232.032 179.902 227.8 178.322 223.434 178.273H222.361C217.94 178.222 213.525 178.657 209.186 179.57C209.982 179.57 210.777 179.57 211.597 179.57H209.186V181.983H211.428C219.155 182.266 226.477 185.772 231.847 191.759C237.216 197.746 240.212 205.745 240.201 214.066V224.276C240.201 224.68 240.279 225.079 240.431 225.448C240.584 225.816 240.806 226.147 241.085 226.417C241.363 226.687 241.691 226.892 242.048 227.017C242.404 227.142 242.781 227.185 243.154 227.143H243.432L245.842 226.339C245.682 226.393 245.516 226.428 245.348 226.443C246.067 226.338 246.725 225.952 247.196 225.358C247.667 224.765 247.919 224.006 247.904 223.225V213.755C247.88 196.617 240.997 187.406 235.488 182.775Z" fill="#F6DE00"/>
<path d="M220.312 264.882C219.318 264.882 218.335 264.652 217.431 264.208L209.897 260.458C209.779 260.413 209.672 260.342 209.581 260.249C209.49 260.157 209.418 260.045 209.369 259.921C209.32 259.797 209.296 259.663 209.298 259.529C209.299 259.394 209.327 259.261 209.379 259.139C209.431 259.016 209.506 258.906 209.599 258.817C209.692 258.727 209.802 258.659 209.921 258.617C210.04 258.575 210.166 258.561 210.29 258.574C210.415 258.587 210.535 258.628 210.645 258.694L218.178 262.443C219.139 262.924 220.216 263.07 221.257 262.861C222.299 262.652 223.254 262.097 223.988 261.276L231.221 253.232C231.39 253.05 231.62 252.948 231.86 252.948C232.099 252.948 232.329 253.05 232.499 253.232C232.665 253.416 232.758 253.663 232.758 253.92C232.758 254.177 232.665 254.423 232.499 254.607L225.266 262.651C224.622 263.362 223.852 263.927 223 264.31C222.149 264.694 221.235 264.888 220.312 264.882Z" fill="#CEBA03"/>
<path opacity="0.5" d="M220.312 264.882C219.318 264.882 218.335 264.652 217.431 264.208L209.897 260.458C209.779 260.413 209.672 260.342 209.581 260.249C209.49 260.157 209.418 260.045 209.369 259.921C209.32 259.797 209.296 259.663 209.298 259.529C209.299 259.394 209.327 259.261 209.379 259.139C209.431 259.016 209.506 258.906 209.599 258.817C209.692 258.727 209.802 258.659 209.921 258.617C210.04 258.575 210.166 258.561 210.29 258.574C210.415 258.587 210.535 258.628 210.645 258.694L218.178 262.443C219.139 262.924 220.216 263.07 221.257 262.861C222.299 262.652 223.254 262.097 223.988 261.276L231.221 253.232C231.39 253.05 231.62 252.948 231.86 252.948C232.099 252.948 232.329 253.05 232.499 253.232C232.665 253.416 232.758 253.663 232.758 253.92C232.758 254.177 232.665 254.423 232.499 254.607L225.266 262.651C224.622 263.362 223.852 263.927 223 264.31C222.149 264.694 221.235 264.888 220.312 264.882Z" fill="black"/>
<path d="M211.874 257.733C211.874 258.483 211.668 259.215 211.281 259.838C210.894 260.461 210.344 260.947 209.701 261.233C209.058 261.52 208.35 261.595 207.668 261.449C206.985 261.303 206.358 260.942 205.865 260.412C205.373 259.882 205.038 259.207 204.902 258.473C204.766 257.738 204.836 256.976 205.102 256.284C205.369 255.592 205.82 255 206.399 254.584C206.978 254.167 207.658 253.945 208.354 253.945C209.288 253.945 210.183 254.344 210.843 255.055C211.503 255.765 211.874 256.729 211.874 257.733Z" fill="#CEBA03"/>
<path opacity="0.5" d="M211.874 257.733C211.874 258.483 211.668 259.215 211.281 259.838C210.894 260.461 210.344 260.947 209.701 261.233C209.058 261.52 208.35 261.595 207.668 261.449C206.985 261.303 206.358 260.942 205.865 260.412C205.373 259.882 205.038 259.207 204.902 258.473C204.766 257.738 204.836 256.976 205.102 256.284C205.369 255.592 205.82 255 206.399 254.584C206.978 254.167 207.658 253.945 208.354 253.945C209.288 253.945 210.183 254.344 210.843 255.055C211.503 255.765 211.874 256.729 211.874 257.733Z" fill="black"/>
<path d="M247.88 213.754V223.225C247.895 224.005 247.643 224.765 247.172 225.358C246.701 225.951 246.043 226.337 245.324 226.442C244.927 226.488 244.526 226.443 244.146 226.31C243.766 226.178 243.416 225.961 243.119 225.673C242.822 225.385 242.585 225.034 242.423 224.641C242.261 224.248 242.177 223.823 242.178 223.393V213.754C242.185 209.154 241.327 204.6 239.656 200.366C237.984 196.131 235.535 192.305 232.454 189.116C229.373 185.927 225.724 183.443 221.728 181.811C217.731 180.179 213.469 179.435 209.198 179.622C213.537 178.708 217.952 178.273 222.373 178.325H223.422C227.788 178.373 232.02 179.954 235.476 182.826C240.997 187.406 247.88 196.617 247.88 213.754Z" fill="#CEBA03"/>
<path opacity="0.5" d="M247.88 213.754V223.225C247.895 224.005 247.643 224.765 247.172 225.358C246.701 225.951 246.043 226.337 245.324 226.442C244.927 226.488 244.526 226.443 244.146 226.31C243.766 226.178 243.416 225.961 243.119 225.673C242.822 225.385 242.585 225.034 242.423 224.641C242.261 224.248 242.177 223.823 242.178 223.393V213.754C242.185 209.154 241.327 204.6 239.656 200.366C237.984 196.131 235.535 192.305 232.454 189.116C229.373 185.927 225.724 183.443 221.728 181.811C217.731 180.179 213.469 179.435 209.198 179.622C213.537 178.708 217.952 178.273 222.373 178.325H223.422C227.788 178.373 232.02 179.954 235.476 182.826C240.997 187.406 247.88 196.617 247.88 213.754Z" fill="black"/>
<path d="M234.331 392.227C234.331 392.227 228.497 409.52 249.35 417.304C249.35 417.304 256.161 406.536 249.35 397.727C242.54 388.919 234.331 392.227 234.331 392.227Z" fill="#CEBA03"/>
<path opacity="0.7" d="M234.331 392.227C234.331 392.227 228.497 409.52 249.35 417.304C249.35 417.304 256.161 406.536 249.35 397.727C242.54 388.919 234.331 392.227 234.331 392.227Z" fill="black"/>
<path d="M241.648 393.018C241.648 393.018 221.276 401.048 221.385 404.162C221.493 407.276 230.04 405.148 230.04 405.148L226.918 407.353C223.63 409.662 221.083 413.005 219.625 416.928C219.307 417.793 219.296 418.753 219.594 419.627C219.892 420.5 220.478 421.225 221.24 421.663L228.979 426.074C229.416 426.323 229.895 426.476 230.388 426.523C230.88 426.57 231.377 426.51 231.848 426.346C232.319 426.183 232.754 425.92 233.129 425.572C233.504 425.224 233.81 424.8 234.029 424.322C234.461 423.405 235.057 422.589 235.783 421.921C236.509 421.253 237.351 420.746 238.26 420.43C242.467 418.926 250.314 414.592 253.461 402.735L241.648 393.018Z" fill="#945959"/>
<path d="M247.759 281.617C247.759 281.617 236.91 288.104 242.672 307.797C248.434 327.49 259.247 358.042 259.247 358.042L234.331 392.227C236.993 392.572 239.557 393.518 241.856 395.002C244.156 396.487 246.138 398.476 247.675 400.841C249.147 403.245 250.066 405.992 250.357 408.855C250.649 411.717 250.304 414.613 249.35 417.304L280.281 374.492C283.141 370.536 285.04 365.875 285.806 360.93C286.573 355.985 286.181 350.913 284.669 346.172L271.409 304.502C269.788 299.412 267.095 294.794 263.54 291.011C259.985 287.228 255.665 284.381 250.917 282.694L247.759 281.617Z" fill="#F7DE00"/>
<path d="M64.6338 165.287L16.6949 135.449C16.1432 135.037 15.5049 134.78 14.8377 134.701C14.1706 134.622 13.4955 134.723 12.8737 134.995C12.7427 135.06 12.6176 135.138 12.5001 135.228L2.0733 141.806H2.14562C0.831728 142.61 0 144.478 0 147.151V204.544C0 209.396 2.73627 215.039 6.12346 217.141L54.0624 246.979C54.6707 247.453 55.3947 247.724 56.1447 247.758C56.8947 247.793 57.6377 247.59 58.2813 247.174C58.2488 247.188 58.2198 247.21 58.197 247.239L68.5514 240.752C69.9015 239.974 70.7573 238.08 70.7573 235.368V177.884C70.7573 173.032 68.0692 167.389 64.6338 165.287Z" fill="#414DBD"/>
<path d="M69.0456 170.723C68.0758 168.503 66.5474 166.62 64.6338 165.287L16.6949 135.449C16.1432 135.037 15.5049 134.78 14.8377 134.701C14.1706 134.622 13.4955 134.723 12.8737 134.995C12.7427 135.06 12.6176 135.138 12.5001 135.228L2.0733 141.806C2.71112 141.455 3.4263 141.3 4.14063 141.357C4.85496 141.414 5.54092 141.681 6.12347 142.13L54.0624 171.968C56.0411 173.361 57.6093 175.332 58.5827 177.651L69.0456 170.723Z" fill="#414DBD"/>
<path d="M60.1859 241.933C60.1859 244.528 59.4144 246.331 58.197 247.122L68.5514 240.636C69.9014 239.857 70.7573 237.963 70.7573 235.252V177.884C70.7063 175.387 70.1206 172.937 69.0456 170.723L58.5827 177.651C59.5873 179.799 60.1349 182.161 60.1859 184.566V241.933Z" fill="#414DBD"/>
<path opacity="0.3" d="M69.0456 170.723C68.0758 168.503 66.5474 166.62 64.6338 165.287L16.6949 135.449C16.1432 135.037 15.5049 134.78 14.8377 134.701C14.1706 134.622 13.4955 134.723 12.8737 134.995C12.7427 135.06 12.6176 135.138 12.5001 135.228L2.0733 141.806C2.71112 141.455 3.4263 141.3 4.14063 141.357C4.85496 141.414 5.54092 141.681 6.12347 142.13L54.0624 171.968C56.0411 173.361 57.6093 175.332 58.5827 177.651L69.0456 170.723Z" fill="black"/>
<path opacity="0.6" d="M60.1859 241.933C60.1859 244.528 59.4144 246.331 58.197 247.122L68.5514 240.636C69.9014 239.857 70.7573 237.963 70.7573 235.252V177.884C70.7063 175.387 70.1206 172.937 69.0456 170.723L58.5827 177.651C59.5873 179.799 60.1349 182.161 60.1859 184.566V241.933Z" fill="black"/>
<path d="M46.1309 201.002C46.1309 208.436 43.3946 210.966 39.2962 208.41C38.1656 207.717 37.177 206.785 36.3898 205.671C35.6026 204.556 35.0331 203.281 34.7157 201.923C33.5103 203.519 31.6419 203.623 29.0141 201.988C24.6988 199.303 21.2995 192.907 21.2995 186.693C21.2995 180.479 24.6626 178.338 29.0141 181.037C31.2222 182.437 33.0058 184.496 34.1491 186.965V184.513L38.6935 187.341V200.782C38.6258 201.489 38.7395 202.203 39.0221 202.845C39.3047 203.488 39.7456 204.035 40.2967 204.427C41.8276 205.387 42.7678 203.766 42.7678 198.952C42.7678 190.533 37.7533 181.607 30.34 177.002C22.9268 172.396 17.9244 175.601 17.9244 184.267C18.0215 188.865 19.1988 193.362 21.3466 197.339C23.4944 201.316 26.5427 204.642 30.2075 207.009C32.1973 208.328 34.4569 209.103 36.789 209.266L37.8618 213.742C35.1463 213.506 32.5222 212.577 30.2075 211.031C20.5642 205.024 14.1876 192.933 14.1876 181.984C14.1876 171.034 20.6245 167.064 30.34 173.11C39.7302 178.935 46.1309 190.598 46.1309 201.002ZM34.2215 194.762C34.2449 193.117 33.8719 191.494 33.1389 190.05C32.4058 188.606 31.3377 187.391 30.0387 186.524C27.6279 185.006 25.9042 186.07 25.9042 189.599C25.8732 191.247 26.2374 192.875 26.9616 194.327C27.6858 195.779 28.7456 197.006 30.0387 197.889C32.4495 199.355 34.2215 198.408 34.2215 194.762Z" fill="#414DBD"/>
<g opacity="0.9">
<path opacity="0.9" d="M46.1309 201.002C46.1309 208.436 43.3946 210.966 39.2962 208.41C38.1656 207.717 37.177 206.785 36.3898 205.671C35.6026 204.556 35.0331 203.281 34.7157 201.923C33.5103 203.519 31.6419 203.623 29.0141 201.988C24.6988 199.303 21.2995 192.907 21.2995 186.693C21.2995 180.479 24.6626 178.338 29.0141 181.037C31.2222 182.437 33.0058 184.496 34.1491 186.965V184.513L38.6935 187.341V200.782C38.6258 201.489 38.7395 202.203 39.0221 202.845C39.3047 203.488 39.7456 204.035 40.2967 204.427C41.8276 205.387 42.7678 203.766 42.7678 198.952C42.7678 190.533 37.7533 181.607 30.34 177.002C22.9268 172.396 17.9244 175.601 17.9244 184.267C18.0215 188.865 19.1988 193.362 21.3466 197.339C23.4944 201.316 26.5427 204.642 30.2075 207.009C32.1973 208.328 34.4569 209.103 36.789 209.266L37.8618 213.742C35.1463 213.506 32.5222 212.577 30.2075 211.031C20.5642 205.024 14.1876 192.933 14.1876 181.984C14.1876 171.034 20.6245 167.064 30.34 173.11C39.7302 178.935 46.1309 190.598 46.1309 201.002ZM34.2215 194.762C34.2449 193.117 33.8719 191.494 33.1389 190.05C32.4058 188.606 31.3377 187.391 30.0387 186.524C27.6279 185.006 25.9042 186.07 25.9042 189.599C25.8732 191.247 26.2374 192.875 26.9616 194.327C27.6858 195.779 28.7456 197.006 30.0387 197.889C32.4495 199.355 34.2215 198.408 34.2215 194.762Z" fill="white"/>
</g>
<path d="M64.6338 267.49L16.6949 237.652C16.144 237.238 15.5049 236.981 14.8369 236.903C14.1689 236.826 13.4936 236.932 12.8737 237.211C12.7427 237.276 12.6176 237.354 12.5001 237.444L2.0733 244.022H2.14562C0.831728 244.826 0 246.694 0 249.354V306.721C0 311.586 2.73627 317.216 6.12346 319.318L54.0624 349.156C54.6694 349.633 55.3938 349.906 56.1445 349.94C56.8952 349.975 57.6387 349.77 58.2813 349.351L58.197 349.429L68.5514 342.877C69.9015 342.112 70.7573 340.283 70.7573 337.493V280.074C70.7573 275.222 68.0692 269.592 64.6338 267.49Z" fill="#414DBD"/>
<path d="M69.0456 272.926C68.079 270.704 66.55 268.82 64.6338 267.49L16.6949 237.652C16.144 237.238 15.5049 236.981 14.8369 236.903C14.1689 236.826 13.4937 236.932 12.8737 237.211C12.7427 237.276 12.6176 237.354 12.5001 237.444L2.0733 244.022C2.70967 243.667 3.42449 243.509 4.13908 243.564C4.85367 243.619 5.54033 243.885 6.12347 244.333L54.0624 274.171C56.0442 275.565 57.613 277.542 58.5827 279.866L69.0456 272.926Z" fill="#414DBD"/>
<path d="M60.1859 344.123C60.1859 346.717 59.4144 348.521 58.197 349.377L68.5514 342.825C69.9014 342.06 70.7573 340.231 70.7573 337.441V280.074C70.7062 277.581 70.1204 275.135 69.0456 272.926L58.5827 279.853C59.5871 281.997 60.1347 284.355 60.1859 286.755V344.123Z" fill="#414DBD"/>
<path opacity="0.3" d="M69.0456 272.926C68.079 270.704 66.55 268.82 64.6338 267.49L16.6949 237.652C16.144 237.238 15.5049 236.981 14.8369 236.903C14.1689 236.826 13.4937 236.932 12.8737 237.211C12.7427 237.276 12.6176 237.354 12.5001 237.444L2.0733 244.022C2.70967 243.667 3.42449 243.509 4.13908 243.564C4.85367 243.619 5.54033 243.885 6.12347 244.333L54.0624 274.171C56.0442 275.565 57.613 277.542 58.5827 279.866L69.0456 272.926Z" fill="black"/>
<path opacity="0.6" d="M60.1859 344.123C60.1859 346.717 59.4144 348.521 58.197 349.377L68.5514 342.825C69.9014 342.06 70.7573 340.231 70.7573 337.441V280.074C70.7062 277.581 70.1204 275.135 69.0456 272.926L58.5827 279.853C59.5871 281.997 60.1347 284.355 60.1859 286.755V344.123Z" fill="black"/>
<path d="M24.7349 293.138L13.175 272.926V300.312L24.7349 293.138Z" fill="#414DBD"/>
<path d="M35.475 298.963L47.0108 320.46V293.112L35.475 298.963Z" fill="#414DBD"/>
<path d="M14.923 272.004L26.7962 292.762C26.8465 292.807 26.8911 292.859 26.9288 292.917C26.9393 292.968 26.9393 293.022 26.9288 293.073L30.4606 299.248L33.4501 297.73C33.4966 297.676 33.5492 297.628 33.6068 297.588C33.7246 297.514 33.8565 297.469 33.9925 297.458L46.0465 291.373L14.923 272.004Z" fill="#414DBD"/>
<path d="M33.7272 299.845L30.4968 301.48C30.3723 301.542 30.2363 301.573 30.099 301.571C29.9326 301.573 29.7686 301.528 29.6228 301.442C29.4771 301.355 29.3546 301.23 29.2672 301.078L25.7354 294.902L14.1394 302.115L45.3474 321.497L33.7272 299.845Z" fill="#414DBD"/>
<g opacity="0.9">
<path opacity="0.9" d="M24.7349 293.138L13.175 272.926V300.312L24.7349 293.138Z" fill="white"/>
<path opacity="0.9" d="M35.475 298.963L47.0108 320.46V293.112L35.475 298.963Z" fill="white"/>
<path opacity="0.9" d="M14.923 272.004L26.7962 292.762C26.8465 292.807 26.8911 292.859 26.9288 292.917C26.9393 292.968 26.9393 293.022 26.9288 293.073L30.4606 299.248L33.4501 297.73C33.4966 297.676 33.5492 297.628 33.6068 297.588C33.7246 297.514 33.8565 297.469 33.9925 297.458L46.0465 291.373L14.923 272.004Z" fill="white"/>
<path opacity="0.9" d="M33.7272 299.845L30.4967 301.479C30.3722 301.542 30.2362 301.573 30.0989 301.57C29.9325 301.572 29.7685 301.528 29.6228 301.441C29.477 301.355 29.3545 301.23 29.2672 301.077L25.7353 294.902L14.1393 302.115L45.3473 321.497L33.7272 299.845Z" fill="white"/>
</g>
<path d="M64.6338 63.136L16.6949 33.2977C16.144 32.8839 15.5049 32.6265 14.8369 32.5494C14.1689 32.4723 13.4936 32.578 12.8737 32.8566C12.7427 32.9217 12.6176 32.9999 12.5001 33.0901L2.0733 39.6675H2.14562C0.831728 40.4589 0 42.34 0 44.9995V102.367C0 107.219 2.73627 112.862 6.12346 114.964L54.0624 144.802C54.6694 145.279 55.3938 145.552 56.1445 145.586C56.8952 145.621 57.6387 145.416 58.2813 144.997L58.197 145.062L68.5514 138.575C69.9015 137.81 70.7573 135.98 70.7573 133.191V75.6811C70.7573 70.8291 68.0692 65.1858 64.6338 63.136Z" fill="#414DBD"/>
<path d="M69.0456 68.5331C68.0793 66.3073 66.5504 64.4191 64.6338 63.0844L16.6949 33.2979C16.144 32.8841 15.5049 32.6267 14.8369 32.5496C14.1689 32.4725 13.4937 32.5782 12.8737 32.8569C12.7427 32.922 12.6176 33.0002 12.5001 33.0904L2.0733 39.6678C2.70967 39.3136 3.42449 39.1553 4.13908 39.2102C4.85367 39.2652 5.54033 39.5312 6.12347 39.9791L54.0624 69.8175C56.0442 71.2116 57.613 73.1881 58.5827 75.5127L69.0456 68.5331Z" fill="#414DBD"/>
<path d="M60.1859 139.678C60.1859 142.273 59.4144 144.076 58.197 144.867L68.5514 138.381C69.9014 137.615 70.7573 135.786 70.7573 132.997V75.6814C70.7062 73.1886 70.1204 70.7421 69.0456 68.5332L58.5827 75.4609C59.5871 77.6046 60.1347 79.9624 60.1859 82.3626V139.678Z" fill="#414DBD"/>
<path opacity="0.3" d="M69.0456 68.5331C68.0793 66.3073 66.5504 64.4191 64.6338 63.0844L16.6949 33.2979C16.144 32.8841 15.5049 32.6267 14.8369 32.5496C14.1689 32.4725 13.4937 32.5782 12.8737 32.8569C12.7427 32.922 12.6176 33.0002 12.5001 33.0904L2.0733 39.6678C2.70967 39.3136 3.42449 39.1553 4.13908 39.2102C4.85367 39.2652 5.54033 39.5312 6.12347 39.9791L54.0624 69.8175C56.0442 71.2116 57.613 73.1881 58.5827 75.5127L69.0456 68.5331Z" fill="black"/>
<path opacity="0.6" d="M60.1859 139.678C60.1859 142.273 59.4144 144.076 58.197 144.867L68.5514 138.381C69.9014 137.615 70.7573 135.786 70.7573 132.997V75.6814C70.7062 73.1886 70.1204 70.7421 69.0456 68.5332L58.5827 75.4609C59.5871 77.6046 60.1347 79.9624 60.1859 82.3626V139.678Z" fill="black"/>
<path d="M44.5036 115.029C42.6593 111.76 40.803 108.542 38.9587 105.247C38.6662 104.623 38.2572 104.07 37.7574 103.624C37.2576 103.178 36.6776 102.847 36.0537 102.653C35.1617 102.458 34.2697 102.237 33.3536 101.952C33.0273 101.806 32.7529 101.551 32.57 101.225C29.5522 95.6666 27.153 89.7447 25.422 83.5819C25.3852 83.4502 25.3747 83.3115 25.3913 83.1751C25.408 83.0387 25.4513 82.9076 25.5184 82.7906C26.085 82.1808 26.7238 81.623 27.3024 81.0781C27.881 80.5332 28.1824 79.2748 27.7605 77.6402C26.8685 74.1764 26.0126 70.7125 25.1206 67.2617C24.948 66.2812 24.5385 65.3669 23.9334 64.6108C23.3282 63.8547 22.5486 63.2834 21.6732 62.9546C19.7293 62.3729 17.6657 62.4545 15.7667 63.1881C15.0314 63.4865 14.6457 64.2 14.6336 65.4324C14.947 67.8065 15.1519 70.1547 15.5738 72.5677C18.5472 89.9691 25.6992 105.969 37.03 120.568C37.3259 121.053 37.7233 121.455 38.1902 121.744C38.6571 122.032 39.1805 122.198 39.7181 122.229C41.594 122.181 43.3962 121.434 44.817 120.114C45.8898 119.077 45.7813 117.234 44.5036 115.029Z" fill="#414DBD"/>
<path d="M44.3589 97.3465C44.1067 93.6149 43.1511 89.9777 41.5503 86.6566C40.3551 84.0621 38.8341 81.6569 37.03 79.5084C36.5599 78.9375 36.1621 78.7559 35.921 79.184C35.68 79.6121 35.921 80.2219 36.3791 80.7797L36.8492 81.3635C40.1809 85.5027 42.2807 90.6234 42.8762 96.0621C42.8703 96.4588 42.9067 96.8549 42.9847 97.2427C43.1361 97.6889 43.3792 98.0924 43.6959 98.4233C43.949 98.6179 44.2383 98.4233 44.4433 98.4233C44.3709 97.8914 44.383 97.6189 44.3589 97.3465Z" fill="#414DBD"/>
<path d="M33.4379 86.6952C34.9517 88.4871 35.8714 90.768 36.0537 93.1818C36.1331 93.5488 36.2588 93.9024 36.4274 94.2326C37.1627 94.8813 37.5243 94.6608 37.5243 93.8434C37.2665 90.7485 36.0772 87.8288 34.1371 85.5276C33.679 85.0217 33.3054 84.866 33.0884 85.2941C33.0103 85.5386 33.0019 85.8025 33.0642 86.0522C33.1265 86.3018 33.2566 86.5257 33.4379 86.6952Z" fill="#414DBD"/>
<g opacity="0.9">
<path opacity="0.9" d="M44.5036 115.029C42.6593 111.76 40.803 108.542 38.9587 105.247C38.6662 104.623 38.2572 104.07 37.7574 103.624C37.2576 103.178 36.6776 102.847 36.0537 102.653C35.1617 102.458 34.2697 102.237 33.3536 101.952C33.0273 101.806 32.7529 101.551 32.57 101.225C29.5522 95.6666 27.153 89.7447 25.422 83.5819C25.3852 83.4502 25.3747 83.3115 25.3913 83.1751C25.408 83.0387 25.4513 82.9076 25.5184 82.7906C26.085 82.1808 26.7238 81.623 27.3024 81.0781C27.881 80.5332 28.1824 79.2748 27.7605 77.6402C26.8685 74.1764 26.0126 70.7125 25.1206 67.2617C24.948 66.2812 24.5385 65.3669 23.9334 64.6108C23.3282 63.8547 22.5486 63.2834 21.6732 62.9546C19.7293 62.3729 17.6657 62.4545 15.7667 63.1881C15.0314 63.4865 14.6457 64.2 14.6336 65.4324C14.947 67.8065 15.1519 70.1547 15.5738 72.5677C18.5472 89.9691 25.6992 105.969 37.03 120.568C37.3259 121.053 37.7233 121.455 38.1902 121.744C38.6571 122.032 39.1805 122.198 39.7181 122.229C41.594 122.181 43.3962 121.434 44.817 120.114C45.8898 119.077 45.7813 117.234 44.5036 115.029Z" fill="white"/>
<path opacity="0.9" d="M44.3589 97.3465C44.1067 93.6149 43.1511 89.9777 41.5503 86.6566C40.3551 84.0621 38.8341 81.6569 37.03 79.5084C36.5599 78.9375 36.1621 78.7559 35.921 79.184C35.68 79.6121 35.921 80.2219 36.3791 80.7797L36.8492 81.3635C40.1809 85.5027 42.2807 90.6234 42.8762 96.0621C42.8703 96.4588 42.9067 96.8549 42.9847 97.2427C43.1361 97.6889 43.3792 98.0924 43.6959 98.4233C43.949 98.6179 44.2383 98.4233 44.4433 98.4233C44.3709 97.8914 44.383 97.6189 44.3589 97.3465Z" fill="white"/>
<path opacity="0.9" d="M33.4379 86.6957C34.9517 88.4876 35.8714 90.7685 36.0537 93.1823C36.1331 93.5493 36.2588 93.9029 36.4274 94.2331C37.1627 94.8818 37.5243 94.6612 37.5243 93.8439C37.2665 90.749 36.0772 87.8293 34.1371 85.5281C33.679 85.0222 33.3054 84.8665 33.0884 85.2946C33.0103 85.5391 33.0019 85.803 33.0642 86.0527C33.1265 86.3023 33.2566 86.5262 33.4379 86.6957Z" fill="white"/>
</g>
<path d="M310.597 28.7309L321.891 35.6456V31.3385C321.891 31.0401 321.891 30.7288 321.891 30.4304C321.891 30.132 321.891 29.8466 321.891 29.5612V29.4055C322.301 23.7103 326.315 21.5178 331.209 24.5665C333.425 26.0332 335.324 27.9927 336.778 30.3136C337.875 22.5297 343.745 19.7794 350.845 24.1773C358.729 29.0812 365.117 41.0425 365.117 50.7983V60.0093C365.106 60.7461 365.275 61.4731 365.607 62.1175C365.939 62.7619 366.423 63.301 367.01 63.6807L373.664 67.871C375.1 68.7874 376.29 70.0892 377.118 71.6492C377.946 73.2092 378.384 74.9739 378.389 76.7706C378.389 77.5161 378.207 78.2484 377.86 78.8938C377.514 79.5393 377.015 80.0751 376.415 80.4474C375.815 80.8196 375.135 81.0151 374.442 81.0142C373.75 81.0132 373.069 80.8159 372.47 80.442L310.765 42.0544C309.129 41.0312 307.769 39.5649 306.822 37.8011C305.874 36.0373 305.372 34.0374 305.365 32.0002C305.365 31.3407 305.525 30.6927 305.831 30.121C306.136 29.5494 306.576 29.0741 307.106 28.743C307.635 28.4119 308.237 28.2365 308.85 28.2343C309.462 28.2322 310.065 28.4035 310.597 28.7309Z" fill="#E6E6E6"/>
<path d="M396.699 26.9276L404.908 32.0001V28.8347C404.908 28.6141 404.908 28.3936 404.908 28.173C404.908 27.9525 404.908 27.7449 404.908 27.5374V27.4595C405.209 23.3211 408.126 21.7254 411.682 23.9438C413.292 25.0057 414.673 26.4255 415.732 28.1082C416.54 22.4778 420.807 20.441 425.966 23.6454C431.704 27.213 436.345 35.8791 436.345 43.0014V49.7085C436.349 50.2343 436.48 50.7499 436.725 51.2047C436.97 51.6595 437.321 52.0381 437.743 52.3032L442.565 55.3519C443.614 56.0159 444.483 56.9642 445.086 58.1023C445.689 59.2404 446.004 60.5285 446 61.8385C445.999 62.375 445.869 62.9021 445.621 63.3677C445.373 63.8333 445.017 64.2214 444.588 64.4938C444.158 64.7662 443.67 64.9134 443.172 64.921C442.673 64.9285 442.181 64.7962 441.745 64.5369L396.82 36.6186C395.629 35.8774 394.641 34.8125 393.953 33.5306C393.265 32.2487 392.903 30.7948 392.902 29.3147C392.901 28.8356 393.017 28.3647 393.238 27.949C393.459 27.5333 393.778 27.1873 394.163 26.9457C394.547 26.7041 394.983 26.5752 395.429 26.5721C395.874 26.5689 396.312 26.6915 396.699 26.9276Z" fill="#E6E6E6"/>
<path d="M156.977 103.316L165.669 88.1805L175.648 94.4065L174.132 97.045L167.285 92.7725L165.214 96.3791L171.548 100.331L170.032 102.97L163.698 99.0176L161.623 102.632L168.499 106.922L166.984 109.561L156.977 103.316ZM190.523 103.688L181.83 118.824L179.126 117.137L178.155 103.59L178.046 103.523L172.575 113.049L169.444 111.096L178.137 95.9597L180.884 97.6741L181.809 111.181L181.94 111.263L187.406 101.744L190.523 103.688ZM193.028 118.663L195.689 120.324L196.017 122.917L196.433 125.305L197.088 130.031L194.167 128.208L193.691 125L193.546 123.183L193.028 118.663ZM202.371 121.361C201.423 123.012 200.311 124.225 199.034 125.001C197.761 125.78 196.424 126.147 195.023 126.102C193.628 126.055 192.278 125.624 190.972 124.809C189.656 123.988 188.65 122.946 187.955 121.682C187.26 120.418 186.941 119.018 186.999 117.481C187.056 115.945 187.558 114.353 188.503 112.708C189.451 111.057 190.561 109.842 191.833 109.063C193.106 108.285 194.439 107.918 195.833 107.965C197.23 108.007 198.586 108.438 199.902 109.259C201.209 110.074 202.209 111.114 202.905 112.377C203.607 113.639 203.93 115.038 203.872 116.575C203.82 118.115 203.319 119.71 202.371 121.361ZM199.197 119.38C199.811 118.311 200.172 117.312 200.281 116.382C200.394 115.455 200.277 114.627 199.931 113.895C199.585 113.164 199.033 112.562 198.277 112.09C197.52 111.618 196.751 111.395 195.969 111.423C195.187 111.45 194.428 111.733 193.693 112.272C192.963 112.814 192.291 113.619 191.677 114.688C191.063 115.757 190.7 116.755 190.586 117.682C190.478 118.612 190.597 119.442 190.943 120.173C191.289 120.905 191.841 121.506 192.598 121.979C193.354 122.451 194.124 122.673 194.906 122.646C195.687 122.618 196.443 122.334 197.174 121.792C197.909 121.253 198.583 120.45 199.197 119.38ZM218.184 120.947L221.315 122.901L215.669 132.73C215.036 133.834 214.223 134.639 213.232 135.145C212.246 135.654 211.159 135.852 209.972 135.741C208.788 135.625 207.584 135.185 206.36 134.421C205.131 133.654 204.187 132.754 203.53 131.721C202.875 130.684 202.53 129.592 202.494 128.445C202.459 127.298 202.758 126.173 203.392 125.07L209.037 115.24L212.168 117.194L206.68 126.75C206.349 127.326 206.177 127.915 206.166 128.517C206.159 129.122 206.308 129.694 206.614 130.233C206.92 130.771 207.375 131.229 207.977 131.605C208.584 131.984 209.186 132.185 209.781 132.209C210.382 132.235 210.933 132.101 211.437 131.806C211.945 131.514 212.364 131.08 212.696 130.503L218.184 120.947ZM227.021 126.462L218.329 141.598L215.198 139.644L223.89 124.508L227.021 126.462ZM220.905 143.205L229.597 128.069L235.44 131.714C236.558 132.412 237.395 133.212 237.951 134.114C238.514 135.015 238.789 135.966 238.777 136.969C238.771 137.969 238.482 138.97 237.907 139.97C237.33 140.975 236.621 141.708 235.781 142.167C234.944 142.622 234.012 142.79 232.987 142.672C231.966 142.557 230.886 142.145 229.749 141.435L225.837 138.994L227.314 136.422L230.72 138.547C231.318 138.92 231.862 139.146 232.354 139.225C232.845 139.304 233.283 139.237 233.669 139.022C234.059 138.81 234.397 138.456 234.682 137.958C234.971 137.455 235.116 136.97 235.116 136.502C235.121 136.037 234.975 135.59 234.677 135.163C234.386 134.734 233.939 134.332 233.337 133.956L231.226 132.639L224.035 145.158L220.905 143.205ZM232.857 141.307L232.582 150.491L229.126 148.335L229.481 139.2L232.857 141.307ZM234.267 151.542L242.959 136.406L252.938 142.632L251.422 145.271L244.575 140.998L242.504 144.605L248.838 148.557L247.323 151.196L240.988 147.243L238.913 150.857L245.789 155.148L244.274 157.786L234.267 151.542ZM272.526 154.854L263.833 169.99L261.129 168.303L260.157 154.757L260.049 154.689L254.578 164.215L251.447 162.262L260.139 147.126L262.887 148.84L263.812 162.348L263.942 162.429L269.409 152.91L272.526 154.854ZM284.374 172.527C283.426 174.178 282.314 175.391 281.036 176.167C279.764 176.946 278.427 177.313 277.025 177.268C275.631 177.221 274.281 176.791 272.975 175.975C271.659 175.154 270.653 174.112 269.958 172.848C269.263 171.585 268.944 170.184 269.002 168.648C269.059 167.111 269.561 165.52 270.506 163.874C271.454 162.223 272.564 161.009 273.836 160.23C275.108 159.451 276.442 159.085 277.836 159.131C279.233 159.173 280.589 159.604 281.905 160.426C283.211 161.241 284.212 162.28 284.907 163.544C285.61 164.805 285.933 166.205 285.875 167.742C285.822 169.281 285.322 170.877 284.374 172.527ZM281.2 170.547C281.814 169.477 282.175 168.478 282.283 167.548C282.396 166.622 282.28 165.793 281.934 165.061C281.588 164.33 281.036 163.728 280.279 163.256C279.523 162.784 278.753 162.562 277.971 162.589C277.19 162.617 276.431 162.9 275.696 163.438C274.966 163.98 274.294 164.785 273.68 165.855C273.066 166.924 272.702 167.922 272.589 168.848C272.481 169.778 272.6 170.608 272.946 171.34C273.292 172.071 273.843 172.673 274.6 173.145C275.357 173.617 276.126 173.839 276.908 173.812C277.69 173.784 278.446 173.5 279.176 172.958C279.911 172.42 280.586 171.616 281.2 170.547ZM285.123 183.275L289.579 165.495L292.999 167.629L289.41 179.675L289.533 179.752L298.277 170.922L301.206 172.75L297.85 184.971L297.98 185.053L306.484 176.043L309.904 178.177L296.975 190.669L293.923 188.765L296.787 177.11L296.671 177.038L288.175 185.179L285.123 183.275Z" fill="#0680A7"/>
</svg>
