<svg width="80" height="80" viewBox="0 0 80 80" fill="none" xmlns="http://www.w3.org/2000/svg">
<circle cx="40" cy="40" r="40" fill="white"/>
<path d="M65.063 26.218L66.092 24.52C66.092 24.52 66.998 23.018 66.998 21.001C66.998 16.115 62.336 16.244 62.336 16.244L52.179 13.479L46.638 8L39.347 9.985L36.956 9.334L35.139 11.131L24.642 13.989C24.642 13.989 20.602 13.878 20.602 18.112C20.602 19.86 21.388 21.162 21.388 21.162L22.739 23.392L21.552 24.564L15.692 26.16C15.692 26.16 11.03 26.031 11.03 30.917C11.0393 32.0554 11.3056 33.1769 11.809 34.198L10 35.987L10.949 36.363C10.97 36.414 10.978 36.471 11.019 36.512C12.854 38.351 12.703 40.821 12.441 42.155L11.332 43.266L19.733 47.305L31.271 66.35C33.12 69.256 37.045 67.438 37.045 67.438L66.694 53.182L65.585 52.071C65.323 50.737 65.172 48.267 67.007 46.427C67.048 46.386 67.056 46.329 67.077 46.279L68.026 45.902L62.513 40.452L68.843 37.409L67.882 36.446C67.655 35.29 67.524 33.149 69.115 31.555C69.15 31.519 69.156 31.471 69.175 31.426L70 31.099L65.063 26.218ZM59.378 17.383L58.128 19.361L54.894 16.163L59.378 17.383ZM47.176 13.144L51.819 18.107L35.03 24.174L31.065 18.018L47.176 13.144ZM23.744 25.052L35.201 43.963L13.374 35.305L23.744 25.052ZM18.969 27.119L17.624 28.449L17.086 27.624L18.969 27.119ZM14.722 28.153L15.974 30.08L13.261 32.762C13.0475 32.17 12.9356 31.5463 12.93 30.917C12.93 29.091 13.836 28.396 14.722 28.153ZM13.154 43.026L13.169 42.968L38.316 53.975L13.366 42.081C13.389 41.946 13.407 41.797 13.426 41.647L32.959 49.827L13.494 40.711C13.499 40.2944 13.4702 39.878 13.408 39.466L31.487 46.911L13.165 38.4C13.0474 38.006 12.8899 37.625 12.695 37.263L37.578 47.888L38.144 48.822C39.311 50.656 41.428 50.317 42.495 49.999C43.97 50.727 46.614 52.411 45.937 54.892C45.58 56.204 44.795 56.84 43.538 56.84C42.265 56.84 40.994 56.174 40.981 56.165L13.154 43.026ZM38.2 56.185L36.234 56.999L34.564 54.436L38.2 56.185ZM30.586 61.566L22.857 48.807L30.539 52.5L34.172 58.092C32.707 58.718 31.07 60.147 30.586 61.566ZM64.619 49.382C64.5568 49.794 64.5281 50.2104 64.533 50.627L45.068 59.743L64.601 51.563C64.62 51.712 64.637 51.862 64.661 51.997L39.711 63.892L64.858 52.885C64.8636 52.9042 64.8686 52.9235 64.873 52.943L37.046 66.08C37.033 66.089 35.764 66.755 34.489 66.755C33.231 66.755 32.447 66.118 32.09 64.807C31.172 61.44 36.392 59.531 36.47 59.502L41.045 57.55C41.536 57.759 45.039 59.134 46.756 56.435L47.839 54.649L65.333 47.179C65.1382 47.5412 64.9804 47.9221 64.862 48.316L46.54 56.827L64.619 49.382ZM64.653 45.221L49.828 51.365L53.942 44.574L60.709 41.321L64.653 45.221ZM67.046 34.114C66.9928 34.4712 66.9677 34.8319 66.971 35.193L50.103 43.093L67.031 36.004C67.048 36.133 67.062 36.264 67.083 36.38L45.459 46.688L67.253 37.149C67.2583 37.1654 67.2626 37.1821 67.266 37.199L43.149 48.586C43.138 48.593 42.037 49.171 40.933 49.171C39.842 49.171 39.163 48.618 38.854 47.482C38.058 44.564 42.582 42.91 42.65 42.885L67.664 32.205C67.4953 32.519 67.359 32.8494 67.257 33.191L51.377 40.567L67.046 34.114Z" fill="black"/>
</svg>
