<svg width="80" height="80" viewBox="0 0 80 80" fill="none" xmlns="http://www.w3.org/2000/svg">
<circle cx="40" cy="40" r="40" fill="#069A8E"/>
<path d="M65.063 28.218L66.092 26.52C66.092 26.52 66.998 25.018 66.998 23.001C66.998 18.115 62.336 18.244 62.336 18.244L52.179 15.479L46.638 10L39.347 11.985L36.956 11.334L35.139 13.131L24.642 15.989C24.642 15.989 20.602 15.878 20.602 20.112C20.602 21.86 21.388 23.162 21.388 23.162L22.739 25.392L21.552 26.564L15.692 28.16C15.692 28.16 11.03 28.031 11.03 32.917C11.0393 34.0554 11.3056 35.1769 11.809 36.198L10 37.987L10.949 38.363C10.97 38.414 10.978 38.471 11.019 38.512C12.854 40.351 12.703 42.821 12.441 44.155L11.332 45.266L19.733 49.305L31.271 68.35C33.12 71.256 37.045 69.438 37.045 69.438L66.694 55.182L65.585 54.071C65.323 52.737 65.172 50.267 67.007 48.427C67.048 48.386 67.056 48.329 67.077 48.279L68.026 47.902L62.513 42.452L68.843 39.409L67.882 38.446C67.655 37.29 67.524 35.149 69.115 33.555C69.15 33.519 69.156 33.471 69.175 33.426L70 33.099L65.063 28.218V28.218ZM59.378 19.383L58.128 21.361L54.894 18.163L59.378 19.383ZM47.176 15.144L51.819 20.107L35.03 26.174L31.065 20.018L47.176 15.144V15.144ZM23.744 27.052L35.201 45.963L13.374 37.305L23.744 27.052V27.052ZM18.969 29.119L17.624 30.449L17.086 29.624L18.969 29.119ZM14.722 30.153L15.974 32.08L13.261 34.762C13.0475 34.17 12.9356 33.5463 12.93 32.917C12.93 31.091 13.836 30.396 14.722 30.153V30.153ZM13.154 45.026L13.169 44.968L38.316 55.975L13.366 44.081C13.389 43.946 13.407 43.797 13.426 43.647L32.959 51.827L13.494 42.711C13.499 42.2944 13.4702 41.878 13.408 41.466L31.487 48.911L13.165 40.4C13.0474 40.006 12.8899 39.625 12.695 39.263L37.578 49.888L38.144 50.822C39.311 52.656 41.428 52.317 42.495 51.999C43.97 52.727 46.614 54.411 45.937 56.892C45.58 58.204 44.795 58.84 43.538 58.84C42.265 58.84 40.994 58.174 40.981 58.165L13.154 45.026ZM38.2 58.185L36.234 58.999L34.564 56.436L38.2 58.185ZM30.586 63.566L22.857 50.807L30.539 54.5L34.172 60.092C32.707 60.718 31.07 62.147 30.586 63.566V63.566ZM64.619 51.382C64.5568 51.794 64.5281 52.2104 64.533 52.627L45.068 61.743L64.601 53.563C64.62 53.712 64.637 53.862 64.661 53.997L39.711 65.892L64.858 54.885C64.8636 54.9042 64.8686 54.9235 64.873 54.943L37.046 68.08C37.033 68.089 35.764 68.755 34.489 68.755C33.231 68.755 32.447 68.118 32.09 66.807C31.172 63.44 36.392 61.531 36.47 61.502L41.045 59.55C41.536 59.759 45.039 61.134 46.756 58.435L47.839 56.649L65.333 49.179C65.1382 49.5412 64.9804 49.9221 64.862 50.316L46.54 58.827L64.619 51.382V51.382ZM64.653 47.221L49.828 53.365L53.942 46.574L60.709 43.321L64.653 47.221V47.221ZM67.046 36.114C66.9928 36.4712 66.9677 36.8319 66.971 37.193L50.103 45.093L67.031 38.004C67.048 38.133 67.062 38.264 67.083 38.38L45.459 48.688L67.253 39.149C67.2583 39.1654 67.2626 39.1821 67.266 39.199L43.149 50.586C43.138 50.593 42.037 51.171 40.933 51.171C39.842 51.171 39.163 50.618 38.854 49.482C38.058 46.564 42.582 44.91 42.65 44.885L67.664 34.205C67.4953 34.519 67.359 34.8494 67.257 35.191L51.377 42.567L67.046 36.114" fill="black"/>
</svg>
