<svg width="80" height="80" viewBox="0 0 80 80" fill="none" xmlns="http://www.w3.org/2000/svg">
<circle cx="40" cy="40" r="40" fill="#40DFEF"/>
<path d="M58.75 64.25H55V58.625C54.997 56.1395 54.0083 53.7567 52.2508 51.9992C50.4933 50.2417 48.1105 49.253 45.625 49.25H34.375C31.8895 49.253 29.5067 50.2417 27.7492 51.9992C25.9917 53.7567 25.003 56.1395 25 58.625V64.25H21.25V58.625C21.254 55.1453 22.6381 51.8092 25.0986 49.3486C27.5592 46.8881 30.8953 45.504 34.375 45.5H45.625C49.1047 45.504 52.4408 46.8881 54.9014 49.3486C57.3619 51.8092 58.746 55.1453 58.75 58.625V64.25ZM19.375 19.25C18.8777 19.25 18.4008 19.4475 18.0492 19.7992C17.6975 20.1508 17.5 20.6277 17.5 21.125V38H21.25V21.125C21.25 20.6277 21.0525 20.1508 20.7008 19.7992C20.3492 19.4475 19.8723 19.25 19.375 19.25Z" fill="black"/>
<path d="M17.5 11.75V15.5H26.875V28.625C26.875 32.106 28.2578 35.4444 30.7192 37.9058C33.1806 40.3672 36.519 41.75 40 41.75C43.481 41.75 46.8194 40.3672 49.2808 37.9058C51.7422 35.4444 53.125 32.106 53.125 28.625V15.5H62.5V11.75H17.5ZM30.625 15.5H49.375V21.125H30.625V15.5ZM40 38C37.5136 38 35.129 37.0123 33.3709 35.2541C31.6127 33.496 30.625 31.1114 30.625 28.625V24.875H49.375V28.625C49.375 31.1114 48.3873 33.496 46.6291 35.2541C44.871 37.0123 42.4864 38 40 38Z" fill="black"/>
</svg>
