<svg width="80" height="80" viewBox="0 0 80 80" fill="none" xmlns="http://www.w3.org/2000/svg">
<circle cx="40" cy="40" r="40" fill="#F7FF93"/>
<path d="M53.3125 26.2812V23.4688C53.3125 23.2109 53.1016 23 52.8438 23H30.3438C30.0859 23 29.875 23.2109 29.875 23.4688V26.2812C29.875 26.5391 30.0859 26.75 30.3438 26.75H52.8438C53.1016 26.75 53.3125 26.5391 53.3125 26.2812ZM30.3438 31.4375C30.0859 31.4375 29.875 31.6484 29.875 31.9062V34.7188C29.875 34.9766 30.0859 35.1875 30.3438 35.1875H41.125C41.3828 35.1875 41.5938 34.9766 41.5938 34.7188V31.9062C41.5938 31.6484 41.3828 31.4375 41.125 31.4375H30.3438ZM38.7813 57.9219H25.1875V16.6719H58V36.8281C58 37.0859 58.2109 37.2969 58.4688 37.2969H61.75C62.0078 37.2969 62.2188 37.0859 62.2188 36.8281V14.3281C62.2188 13.291 61.3809 12.4531 60.3438 12.4531H22.8438C21.8066 12.4531 20.9688 13.291 20.9688 14.3281V60.2656C20.9688 61.3027 21.8066 62.1406 22.8438 62.1406H38.7813C39.0391 62.1406 39.25 61.9297 39.25 61.6719V58.3906C39.25 58.1328 39.0391 57.9219 38.7813 57.9219ZM64.8965 60.9395L59.4297 55.4727C60.7363 53.7441 61.5156 51.5879 61.5156 49.25C61.5156 43.5547 56.8984 38.9375 51.2031 38.9375C45.5078 38.9375 40.8906 43.5547 40.8906 49.25C40.8906 54.9453 45.5078 59.5625 51.2031 59.5625C53.3008 59.5625 55.2461 58.9355 56.875 57.8633L62.4238 63.4121C62.5176 63.5059 62.6348 63.5469 62.752 63.5469C62.8691 63.5469 62.9922 63.5 63.0801 63.4121L64.8965 61.5957C64.9397 61.5527 64.974 61.5016 64.9974 61.4453C65.0208 61.3889 65.0329 61.3286 65.0329 61.2676C65.0329 61.2066 65.0208 61.1462 64.9974 61.0899C64.974 61.0336 64.9397 60.9825 64.8965 60.9395ZM51.2031 55.8125C47.5762 55.8125 44.6406 52.877 44.6406 49.25C44.6406 45.623 47.5762 42.6875 51.2031 42.6875C54.8301 42.6875 57.7656 45.623 57.7656 49.25C57.7656 52.877 54.8301 55.8125 51.2031 55.8125Z" fill="black"/>
</svg>
