<svg width="38" height="30" viewBox="0 0 38 30" fill="none" xmlns="http://www.w3.org/2000/svg">
<path d="M24.854 29.6701C25.7525 29.6701 26.5835 28.9772 27.023 27.8562C27.4455 26.7675 27.4455 25.4679 27.0205 24.3729C26.9585 24.2171 26.888 24.0721 26.8125 23.934C27.388 23.6072 27.8825 23.0169 28.2005 22.2322C28.6745 21.0441 28.6745 19.5697 28.2005 18.379C27.979 17.8356 27.669 17.3866 27.307 17.0535C27.669 16.7159 27.979 16.2713 28.2005 15.7266C28.677 14.5391 28.677 13.0616 28.2005 11.8741C28.091 11.61 27.961 11.3693 27.818 11.1508L35.396 10.8734C37.2445 10.8177 38.123 9.17228 38.1585 7.66685C38.198 6.04488 37.2705 4.30575 35.393 4.11195L21.9085 3.73575C21.9085 3.69015 21.914 3.64328 21.9015 3.59705C21.0185 -0.592451 17.9535 -0.354952 14.75 0.528548C12.1095 1.42598 10.818 2.72242 9.78102 3.76425C8.78352 4.76745 8.06202 5.49325 6.47902 5.51668H4.33852C0.711516 5.51668 1.90735e-05 7.99365 1.90735e-05 12.2781V19.077C1.90735e-05 23.3615 0.711016 25.8422 4.33852 25.8422L5.82052 25.8422V25.8555H6.66652C7.91402 25.9309 8.54452 26.5446 9.32302 27.3198C10.38 28.3718 11.695 29.6783 14.885 29.6714L24.76 29.6448C24.7915 29.6549 24.8205 29.6714 24.8515 29.6714L24.854 29.6701ZM4.34102 24.5268C1.75002 24.5268 1.03902 23.3564 1.03902 19.0776V12.2794C1.03902 8.00505 1.74952 6.83022 4.34102 6.83022H5.82052V24.5268L4.34102 24.5268ZM9.96602 26.2849C9.17452 25.4971 8.34952 24.6959 6.86202 24.554V6.80425C8.54752 6.66555 9.43002 5.80168 10.427 4.79848C11.4395 3.77945 12.5885 2.62868 14.9945 1.80978C18.6825 0.790749 20.2445 1.28855 20.841 3.70978L18.7265 3.65975C18.4395 3.65405 18.203 3.94348 18.2005 4.31018C18.198 4.67942 18.4245 4.97012 18.7085 4.97645L35.341 5.42485C36.6035 5.55658 37.161 6.60982 37.1195 7.62885C37.099 8.49272 36.63 9.51872 35.375 9.55482L25.76 9.88732C25.0805 9.91455 25.13 11.204 25.7725 11.204C26.382 11.204 26.958 11.6923 27.2725 12.4707C27.6015 13.2927 27.6015 14.3086 27.2725 15.1256C26.958 15.9078 26.382 16.3923 25.7725 16.3923C25.484 16.3923 25.252 16.6893 25.252 17.0528C25.252 17.4145 25.484 17.709 25.7725 17.709C26.382 17.709 26.958 18.1973 27.2725 18.9756C27.6015 19.7971 27.6015 20.8161 27.2725 21.635C26.958 22.4159 26.382 22.9017 25.7725 22.9017C25.304 22.9017 25.0515 23.7155 25.4995 24.1215C25.734 24.3292 25.9475 24.5997 26.0905 24.9594C26.369 25.6719 26.3665 26.5598 26.0905 27.2711C25.838 27.9152 25.3875 28.3173 24.903 28.3433C24.8845 28.3401 24.869 28.33 24.851 28.33L14.8815 28.3559C12.055 28.3597 10.992 27.3046 9.96602 26.2849Z" fill="black"/>
</svg>
