<svg width="526" height="443" viewBox="0 0 526 443" fill="none" xmlns="http://www.w3.org/2000/svg">
<path d="M519.5 442.93H6.6778C3.23113 442.93 0.411133 440.025 0.411133 436.475V411.191C0.411133 407.64 3.23113 404.735 6.6778 404.735H519.5C522.947 404.735 525.767 407.64 525.767 411.191V436.475C525.767 440.025 522.947 442.93 519.5 442.93Z" fill="#F7F7F7"/>
<path d="M267.267 413.881C363.597 413.881 441.689 333.435 441.689 234.201C441.689 134.967 363.597 54.5213 267.267 54.5213C170.936 54.5213 92.8445 134.967 92.8445 234.201C92.8445 333.435 170.936 413.881 267.267 413.881Z" fill="#F3FAFF"/>
<path d="M483.467 361.106C487.175 351.369 490.934 340.556 487.436 330.765C486.6 328.398 485.295 325.87 486.078 323.449C487.122 320.167 491.3 319.038 492.658 315.918C494.224 312.475 491.77 308.494 492.397 304.782C493.023 301.016 496.627 298.541 500.126 297.196C503.625 295.851 507.437 294.991 510.257 292.516C515.636 287.674 515.009 279.013 513.808 271.697C512.607 264.434 511.719 255.827 516.889 250.716C507.385 252.599 497.671 254.536 489.42 259.7C481.169 264.865 474.589 274.01 475.059 283.963C475.32 288.966 477.2 294.291 475.007 298.703C472.605 303.491 466.181 305.373 464.562 310.484C462.682 316.348 468.27 321.728 470.463 327.484C472.552 332.917 471.56 338.996 472.03 344.752C472.5 350.562 475.425 357.125 481.012 357.986L483.467 361.106Z" fill="#FFBE55"/>
<path opacity="0.31" d="M483.467 361.106C487.175 351.369 490.934 340.556 487.436 330.765C486.6 328.398 485.295 325.87 486.078 323.449C487.122 320.167 491.3 319.038 492.658 315.918C494.224 312.475 491.77 308.494 492.397 304.782C493.023 301.016 496.627 298.541 500.126 297.196C503.625 295.851 507.437 294.991 510.257 292.516C515.636 287.674 515.009 279.013 513.808 271.697C512.607 264.434 511.719 255.827 516.889 250.716C507.385 252.599 497.671 254.536 489.42 259.7C481.169 264.865 474.589 274.01 475.059 283.963C475.32 288.966 477.2 294.291 475.007 298.703C472.605 303.491 466.181 305.373 464.562 310.484C462.682 316.348 468.27 321.728 470.463 327.484C472.552 332.917 471.56 338.996 472.03 344.752C472.5 350.562 475.425 357.125 481.012 357.986L483.467 361.106Z" fill="#005555"/>
<path d="M479.654 348.357C479.55 320.06 484.877 260.83 516.576 250.932" stroke="white" stroke-width="0.75" stroke-miterlimit="10" stroke-linecap="round"/>
<path d="M461.377 358.739C455.737 347.873 449.888 335.768 452.656 323.772C453.334 320.867 454.483 317.747 453.282 315.003C451.663 311.345 446.598 310.538 444.561 307.095C442.316 303.329 444.613 298.272 443.36 294.022C442.107 289.665 437.563 287.352 433.333 286.222C429.103 285.146 424.508 284.716 420.852 282.133C413.907 277.238 413.489 266.963 413.907 258.302C414.324 249.64 414.22 239.419 407.483 234.201C418.868 235.062 430.513 235.976 440.853 240.872C451.193 245.767 460.176 255.558 460.907 267.286C461.272 273.149 459.758 279.659 462.943 284.554C466.39 289.826 474.171 291.117 476.782 296.874C479.759 303.491 473.962 310.538 472.134 317.585C470.463 324.202 472.396 331.196 472.604 338.028C472.813 344.86 470.254 352.983 463.831 354.812L461.377 358.739Z" fill="#069A8E"/>
<path d="M464.144 343.246C460.489 310.054 446.389 241.463 407.901 234.416" stroke="white" stroke-width="0.75" stroke-miterlimit="10" stroke-linecap="round"/>
<path d="M497.044 422.488H447.433C443.987 422.488 441.167 419.583 441.167 416.032L436.989 342.332C436.989 338.781 439.809 335.876 443.256 335.876H501.222C504.669 335.876 507.489 338.781 507.489 342.332L503.311 416.032C503.311 419.583 500.491 422.488 497.044 422.488Z" fill="#40DFEF"/>
<path d="M79.1856 183.422L47.1737 188.422L68.9381 336.286L100.95 331.286L79.1856 183.422Z" fill="#FFBE55"/>
<path d="M79.1745 183.436L63.1686 185.936L84.9329 333.8L100.939 331.3L79.1745 183.436Z" fill="#FFBE55"/>
<path d="M79.2145 183.579L47.2022 188.582L54.7222 168.731L59.0045 157.541L66.3156 166.956L79.2145 183.579Z" fill="#FFEBC2"/>
<path d="M66.3156 166.956L54.7222 168.731L59.0045 157.541L66.3156 166.956Z" fill="#0E538C"/>
<path d="M137.164 152.544L104.916 149.569L91.9674 298.525L124.216 301.5L137.164 152.544Z" fill="black"/>
<path d="M137.195 152.556L121.071 151.069L108.122 300.024L124.247 301.512L137.195 152.556Z" fill="#989898"/>
<path d="M137.181 152.7L104.908 149.741L116.814 132.311L123.551 122.466L128.46 133.387L137.181 152.7Z" fill="#FFEBC2"/>
<path d="M128.46 133.387L116.814 132.311L123.551 122.466L128.46 133.387Z" fill="#0E538C"/>
<path d="M158.383 423.026H31.17L14.5111 220.214H168.567L158.383 423.026Z" fill="#40DFEF"/>
<path opacity="0.5" d="M91.5389 423.026H158.383L168.567 220.214H91.5389V423.026Z" fill="#CCE9FF"/>
<path d="M442.733 365.787H119.478V411.567H442.733V365.787Z" fill="#BEBDFF"/>
<path d="M120.836 365.787V411.567H459.967V415.01C459.967 419.26 456.363 422.703 451.924 422.703H122.298C111.801 422.703 103.289 414.634 103.289 404.628V374.017C103.289 364.011 111.801 355.942 122.298 355.942H451.924C456.363 355.942 459.967 359.385 459.967 363.635V365.84H120.836V365.787Z" fill="#5855FF"/>
<path d="M443 386H121V412H443V386Z" fill="#BEBDFF"/>
<path d="M423.933 310.054H161.256V349.863H423.933V310.054Z" fill="#E1BAFF"/>
<path d="M161.256 310.054V349.863H433.856V352.876C433.856 356.588 430.931 359.546 427.38 359.546H162.404C153.997 359.546 147.156 352.499 147.156 343.838V317.209C147.156 308.547 153.997 301.5 162.404 301.5H427.38C430.931 301.5 433.856 304.513 433.856 308.171V310.108H161.256V310.054Z" fill="#9B2AF4"/>
<path d="M274.787 174.541C271.183 169.645 270.87 162.921 274.264 157.81C276.98 153.722 278.808 148.665 278.599 144.953C278.181 138.282 274.16 132.149 268.677 128.491C261.47 123.65 251.861 122.95 244.08 126.716C236.299 130.482 230.659 138.551 229.667 147.32C228.936 153.614 230.346 160.5 227.212 165.987C224.914 169.914 220.684 172.228 216.507 173.788C212.277 175.294 207.838 176.316 203.973 178.629C200.109 180.943 196.819 184.924 196.871 189.55C196.923 193.047 198.856 196.275 199.064 199.718C199.378 204.774 195.931 209.239 192.276 212.575C188.568 215.91 184.338 218.815 181.831 223.173C177.706 230.381 179.638 240.119 184.86 246.574C190.082 253.03 197.916 256.634 205.749 258.732C227.16 264.542 249.72 260.776 271.81 260.4C278.651 260.292 285.649 260.507 292.281 258.732C298.913 256.957 305.389 252.868 308.157 246.413C310.977 239.957 309.567 232.103 305.807 226.239C302.047 220.375 296.146 216.125 289.931 213.113C285.44 210.907 280.636 209.186 276.98 205.743C273.324 202.3 271.183 196.436 273.638 191.971C274.578 190.249 276.144 188.904 277.032 187.183C278.808 183.848 278.077 179.598 276.092 176.37C275.727 175.832 275.309 175.24 274.787 174.541Z" fill="#0E538C"/>
<path d="M423.933 327.807H161.256V349.863H423.933V327.807Z" fill="#E1BAFF"/>
<path d="M279.8 271.32L312.178 294.991L351.867 379.451H344.556L300.167 304.674C300.167 304.674 285.022 305.212 279.8 300.37C274.578 295.529 244.55 274.548 244.55 274.548L279.8 271.32Z" fill="#0B4870"/>
<path d="M222.512 264.542C216.611 281.004 220.789 304.136 240.633 305.212C260.478 306.288 266.744 305.212 266.744 305.212L305.389 385.906H314.267L283.978 295.529L247.161 274.548L222.512 264.542Z" fill="#0E538C"/>
<path d="M252.644 170.721C257.867 177.715 270.4 197.081 275.1 218.6C279.8 240.119 292.856 271.32 292.856 271.32H277.711L263.089 220.214L249.511 172.335L252.644 170.721Z" fill="#F4BFBF"/>
<path d="M268.729 142.155C269.512 155.336 263.924 164.373 255.934 164.804C247.944 165.234 242.722 153.291 245.124 142.155C250.712 132.257 258.337 131.45 258.337 131.45H263.141L268.729 142.155Z" fill="#FFE3CA"/>
<path d="M263.402 134.301C261.94 138.928 258.702 142.909 254.524 145.168C250.347 147.428 245.333 147.965 240.79 146.567L252.174 129.836H261.94L271.288 137.475L269.878 146.244C266.222 143.393 263.402 134.301 263.402 134.301Z" fill="#0E538C"/>
<path d="M253.532 163.244C251.861 169.914 252.383 176.908 252.383 177.984C250.817 180.136 243.506 179.598 242.461 172.066C244.028 162.383 247.161 151.624 247.161 151.624L249.772 157.541L253.532 163.244Z" fill="#FFE3CA"/>
<path d="M243.506 166.364C236.978 168.569 215.044 178.791 214 180.943C215.567 186.86 223.4 274.548 223.4 274.548H258.911C258.911 274.548 254.211 226.131 256.822 222.904C259.433 219.676 267.789 208.379 266.744 206.765C265.7 205.151 252.436 170.452 252.436 170.452L243.506 166.364Z" fill="#E78EA9"/>
<path d="M214 180.943C208.882 184.977 187.367 221.29 194.156 240.657C200.944 260.023 223.139 271.428 223.139 271.428V260.776C223.139 260.776 205.122 246.036 206.167 235.277C207.211 224.518 219.744 202.461 219.744 202.461L214 180.943Z" fill="#F4BFBF"/>
<path d="M298.13 280.735H221.259C218.857 280.735 216.872 278.69 216.872 276.216L214.783 225.54C214.783 223.065 216.768 221.021 219.17 221.021H299.174C301.577 221.021 303.561 223.065 303.561 225.54L302.517 276.216C302.517 278.69 300.532 280.735 298.13 280.735Z" fill="#069A8E"/>
<path d="M313.013 385.906C318.183 387.09 325.181 392.954 328.523 395.966C329.202 396.558 328.784 397.742 327.844 397.742C322.466 397.634 310.298 397.042 307.478 394.568C303.822 391.34 304.867 385.96 304.867 385.96H313.013V385.906ZM351.762 379.236C356.358 380.527 362.416 386.014 365.444 388.973C366.123 389.618 365.601 390.748 364.713 390.694C359.648 390.318 348.786 389.296 346.331 386.875C343.093 383.755 344.294 378.859 344.294 378.859L351.762 379.236Z" fill="#E78EA9"/>
<path d="M259.433 258.947C263.76 258.947 267.267 255.334 267.267 250.878C267.267 246.421 263.76 242.808 259.433 242.808C255.107 242.808 251.6 246.421 251.6 250.878C251.6 255.334 255.107 258.947 259.433 258.947Z" fill="white"/>
<path d="M190.5 365.464L180.578 359.546L170.656 365.464V327.807H190.5V365.464Z" fill="#FFBE55"/>
<path d="M344.347 142.478C344.347 143.5 343.981 144.415 343.354 145.168C343.981 145.867 344.347 146.836 344.347 147.858V151.193C344.347 151.893 344.138 152.592 343.824 153.184C344.138 153.775 344.347 154.475 344.347 155.174V158.51C344.347 160.715 342.623 162.49 340.482 162.49H306.851C304.71 162.49 302.987 160.715 302.987 158.51V155.12C302.987 154.421 303.196 153.722 303.509 153.13C303.196 152.538 302.987 151.839 302.987 151.139V147.804C302.987 146.782 303.352 145.867 303.979 145.114C303.352 144.415 302.987 143.447 302.987 142.424V139.089C302.987 136.883 304.71 135.108 306.851 135.108H340.482C342.623 135.108 344.347 136.883 344.347 139.089V142.478ZM371.189 67.0558C371.189 86.4763 360.222 103.207 344.347 111.169V129.244C344.347 130.589 343.25 131.719 341.944 131.719H305.389C304.083 131.719 302.987 130.589 302.987 129.244V111.169C287.111 103.261 276.144 86.4763 276.144 67.0558C276.144 39.9963 297.399 18.1012 323.667 18.1012C349.934 18.1012 371.189 40.0501 371.189 67.0558Z" fill="#FFBE55"/>
<path opacity="0.23" d="M339.856 145.437H308" stroke="#7F7F7F" stroke-width="2" stroke-miterlimit="10" stroke-linecap="round"/>
<path opacity="0.23" d="M339.856 152.969H308" stroke="#7F7F7F" stroke-width="2" stroke-miterlimit="10" stroke-linecap="round"/>
<path d="M331.813 73.081C331.239 72.543 330.403 72.2741 329.516 72.3817C328.419 72.4892 327.374 73.1348 326.696 74.0493C326.121 74.8563 325.808 75.8246 325.651 76.7391C325.181 76.4702 324.659 76.2012 324.189 75.8784L324.032 75.7708H323.353L323.197 75.8784C322.674 76.2012 322.204 76.4702 321.734 76.7391C321.578 75.8246 321.264 74.8563 320.69 74.0493C320.063 73.1348 318.967 72.4892 317.87 72.3817C316.982 72.2741 316.199 72.543 315.572 73.081C314.789 73.8341 314.528 74.9101 314.789 76.0398C315.207 77.5461 316.408 78.7834 317.818 79.0524C318.706 79.2138 319.541 79.16 320.429 78.9448C321.734 96.4286 322.257 114.128 321.891 131.611H323.458C323.823 114.074 323.301 96.321 321.996 78.8372C321.996 78.6758 321.996 78.5144 321.943 78.353C322.57 78.0841 323.144 77.7613 323.719 77.3847C324.293 77.7075 324.868 78.0841 325.494 78.353C325.494 78.5144 325.494 78.6758 325.442 78.8372C324.137 96.321 323.614 114.074 323.98 131.611H325.547C325.181 114.128 325.703 96.3748 327.009 78.9448C327.844 79.16 328.732 79.2676 329.62 79.0524C330.978 78.7834 332.231 77.5461 332.649 76.0398C332.858 74.9101 332.597 73.8341 331.813 73.081ZM318.079 77.5461C317.296 77.3847 316.512 76.5778 316.251 75.6632C316.147 75.2866 316.094 74.6949 316.564 74.3183C316.826 74.0493 317.191 73.9955 317.452 73.9955C317.504 73.9955 317.557 73.9955 317.661 73.9955C318.288 74.0493 318.967 74.4259 319.384 75.0177C319.854 75.6632 320.116 76.4702 320.22 77.3847C319.489 77.5999 318.81 77.6537 318.079 77.5461ZM331.082 75.6632C330.821 76.5778 330.09 77.3847 329.254 77.5461C328.576 77.7075 327.844 77.5999 327.166 77.3847C327.322 76.4702 327.531 75.6632 328.001 75.0177C328.367 74.4797 329.046 74.1031 329.724 73.9955C330.038 73.9417 330.456 73.9955 330.821 74.3183C331.187 74.6949 331.134 75.2866 331.082 75.6632Z" fill="white"/>
<path d="M311.133 27.0852C299.644 31.3889 280.844 46.9898 282.411 72.2741" stroke="white" stroke-width="4" stroke-miterlimit="10" stroke-linecap="round"/>
<path d="M248.206 114.773C255.56 114.773 261.522 108.631 261.522 101.055C261.522 93.4788 255.56 87.337 248.206 87.337C240.851 87.337 234.889 93.4788 234.889 101.055C234.889 108.631 240.851 114.773 248.206 114.773Z" fill="#F9FFAE"/>
<path d="M390.772 62.0528C394.089 62.0528 396.778 59.283 396.778 55.8662C396.778 52.4495 394.089 49.6796 390.772 49.6796C387.455 49.6796 384.767 52.4495 384.767 55.8662C384.767 59.283 387.455 62.0528 390.772 62.0528Z" fill="#069A8E"/>
<path d="M371.189 163.19C376.669 163.19 381.111 158.614 381.111 152.968C381.111 147.323 376.669 142.747 371.189 142.747C365.709 142.747 361.267 147.323 361.267 152.968C361.267 158.614 365.709 163.19 371.189 163.19Z" fill="#FF5589"/>
<path d="M276.144 20.6296C281.624 20.6296 286.067 16.0534 286.067 10.4083C286.067 4.76324 281.624 0.187012 276.144 0.187012C270.665 0.187012 266.222 4.76324 266.222 10.4083C266.222 16.0534 270.665 20.6296 276.144 20.6296Z" fill="#58F0FF"/>
<path opacity="0.14" d="M190.5 365.464L180.578 359.546L170.656 365.464V327.807H190.5V365.464Z" fill="#FF0000"/>
</svg>
