<svg width="185" height="186" viewBox="0 0 185 186" fill="none" xmlns="http://www.w3.org/2000/svg">
<path d="M82.0937 92.7094C59.2578 92.7094 40.7578 74.1094 40.7578 51.15C40.7578 28.1906 59.2578 9.88123 82.0937 9.88123C104.93 9.88123 123.43 28.1906 123.43 51.15C123.43 74.1094 104.93 92.7094 82.0937 92.7094ZM82.0937 15.4031C62.4375 15.4031 46.5391 31.3875 46.5391 51.15C46.5391 70.9125 62.4375 87.1875 82.0937 87.1875C101.75 87.1875 117.648 71.2031 117.648 51.4406C117.648 31.6781 102.039 15.4031 82.0937 15.4031Z" fill="white"/>
<path d="M82.0937 170.597C81.8047 170.597 74.8672 170.306 65.3281 169.434C56.6562 168.562 43.3594 166.819 31.7969 163.913C20.8125 160.716 8.09374 153.741 5.20312 148.8C-0.578134 139.5 5.20312 129.328 7.22655 125.841C20.2344 104.334 60.4141 90.9656 61.8594 90.675L63.3047 90.0938L82.6719 104.916L100.883 90.0938L102.328 90.675C103.195 90.9656 119.961 96.4875 135.57 106.078L132.68 110.728C119.961 102.881 106.375 97.65 102.039 95.9062L85.8516 108.984L95.9687 139.209L83.8281 158.681L71.6875 139.209L79.4922 108.694L62.1484 95.325C55.2109 98.5219 22.2578 110.728 11.8516 128.456C7.51562 135.722 6.93749 141.244 9.53905 145.603C11.5625 148.8 21.9687 155.484 33.2422 158.681C44.5156 161.878 57.2344 163.622 65.9062 163.913C75.4453 164.784 82.0937 165.075 82.0937 165.075C82.0937 165.075 100.305 164.494 118.805 161.006L119.672 166.238C101.172 170.016 82.3828 170.597 82.0937 170.597ZM77.4687 138.628L83.5391 148.509L89.6094 138.337L82.6719 117.413L77.4687 138.628ZM143.664 150.253C136.437 150.253 130.367 144.441 130.367 136.884C130.367 129.328 136.148 123.516 143.664 123.516C151.18 123.516 156.961 129.328 156.961 136.884C156.672 144.441 150.891 150.253 143.664 150.253ZM143.664 129.328C139.328 129.328 136.148 132.816 136.148 136.884C136.148 141.244 139.617 144.441 143.664 144.441C148 144.441 151.18 140.953 151.18 136.884C151.18 133.106 147.711 129.328 143.664 129.328Z" fill="white"/>
<path d="M152.625 176.119H135.859L133.258 168.562C132.102 168.272 131.234 167.691 130.078 167.4L122.563 171.469L110.422 159.553L114.18 152.287C113.602 151.416 113.312 150.253 112.734 149.091L104.641 146.475V129.619L112.156 127.003C112.445 125.841 113.023 124.969 113.312 123.806L109.266 116.25L121.117 104.044L128.344 107.822C129.211 107.241 130.367 106.95 131.523 106.369L134.125 98.2312H150.891L153.492 105.787C154.648 106.078 155.516 106.659 156.672 106.95L164.187 102.881L176.039 114.797L172.281 122.062C172.859 122.934 173.148 124.097 173.727 125.259L181.82 127.875V144.731L174.305 147.347C174.016 148.509 173.438 149.381 173.148 150.544L177.195 158.1L165.633 170.597L158.406 166.819C157.25 167.4 156.383 167.691 155.227 168.272L152.625 176.119ZM139.617 170.597H148.578L150.891 163.622L152.336 163.041C154.07 162.459 155.516 161.878 157.25 161.006L158.695 160.134L164.766 163.331L170.836 157.228L167.367 150.834L167.945 149.672C168.812 147.928 169.391 146.475 169.969 144.731L170.258 143.278L176.906 140.953V131.944L169.969 129.619L169.391 128.166C168.812 126.422 168.234 124.969 167.367 123.225L166.5 122.062L169.68 115.959L163.609 110.147L156.961 113.344L155.516 112.762C153.781 111.891 152.336 111.309 150.602 110.728L149.445 110.437L147.133 103.753H138.172L135.859 110.728L134.414 111.309C132.68 111.891 130.945 112.762 129.5 113.344L128.633 114.216L122.563 110.728L116.492 116.831L119.961 123.225L119.383 124.387C118.516 125.841 117.937 127.584 117.359 129.328L117.07 130.781L110.422 133.106V142.116L117.359 144.441L117.937 145.894C118.516 147.637 119.383 149.381 119.961 150.834L120.828 152.287L117.359 158.391L123.43 164.494L129.789 161.006L130.945 161.587C132.391 162.459 134.125 163.041 135.859 163.622L137.305 163.912L139.617 170.597ZM143.664 150.253C136.438 150.253 130.367 144.441 130.367 136.884C130.367 129.328 136.148 123.516 143.664 123.516C151.18 123.516 156.961 129.328 156.961 136.884C156.672 144.441 150.891 150.253 143.664 150.253ZM143.664 129.328C139.328 129.328 136.148 132.816 136.148 136.884C136.148 141.244 139.617 144.441 143.664 144.441C148 144.441 151.18 140.953 151.18 136.884C151.18 133.106 147.711 129.328 143.664 129.328Z" fill="white"/>
</svg>
