<svg width="185" height="186" viewBox="0 0 185 186" fill="none" xmlns="http://www.w3.org/2000/svg">
<path d="M146.458 62C141.008 61.9863 135.73 63.9131 131.558 67.4389C127.386 70.9646 124.59 75.8616 123.667 81.2618C122.743 86.662 123.751 92.2166 126.512 96.9409C129.273 101.665 133.608 105.254 138.75 107.071V120.125C138.75 129.374 135.095 138.245 128.59 144.785C122.085 151.326 113.262 155 104.062 155C94.8628 155 86.0399 151.326 79.5347 144.785C73.0296 138.245 69.375 129.374 69.375 120.125V112.224L93.4558 92.86C97.9787 89.2384 101.629 84.6356 104.133 79.3959C106.637 74.1561 107.93 68.4149 107.917 62.6017V23.25C107.917 21.1946 107.105 19.2233 105.659 17.7699C104.213 16.3165 102.253 15.5 100.208 15.5H84.7917C82.7473 15.5 80.7866 16.3165 79.341 17.7699C77.8955 19.2233 77.0833 21.1946 77.0833 23.25C77.0833 25.3054 77.8955 27.2767 79.341 28.7301C80.7866 30.1835 82.7473 31 84.7917 31H92.5V62.6017C92.5083 66.0898 91.7324 69.5346 90.23 72.6787C88.7277 75.8228 86.5379 78.5848 83.8243 80.7582L61.6667 98.5741L39.5129 80.7582C36.7982 78.5856 34.6073 75.8239 33.1042 72.6797C31.6012 69.5355 30.8248 66.0902 30.8333 62.6017V31H38.5417C40.586 31 42.5467 30.1835 43.9923 28.7301C45.4379 27.2767 46.25 25.3054 46.25 23.25C46.25 21.1946 45.4379 19.2233 43.9923 17.7699C42.5467 16.3165 40.586 15.5 38.5417 15.5H23.125C21.0806 15.5 19.12 16.3165 17.6744 17.7699C16.2288 19.2233 15.4167 21.1946 15.4167 23.25V62.6017C15.4027 68.4153 16.6965 74.1569 19.2013 79.3967C21.7062 84.6366 25.3571 89.2391 29.881 92.86L53.9583 112.223V120.125C53.9583 133.485 59.2371 146.298 68.6335 155.745C78.0298 165.193 90.774 170.5 104.062 170.5C117.351 170.5 130.095 165.193 139.491 155.745C148.888 146.298 154.167 133.485 154.167 120.125V107.072C159.308 105.255 163.644 101.666 166.404 96.9412C169.165 92.2169 170.173 86.6623 169.25 81.2621C168.326 75.862 165.531 70.9649 161.359 67.4391C157.187 63.9133 151.908 61.9864 146.458 62V62ZM146.458 93C144.934 93 143.443 92.5455 142.176 91.6939C140.908 90.8423 139.92 89.6319 139.337 88.2158C138.753 86.7997 138.601 85.2414 138.898 83.7381C139.196 82.2347 139.93 80.8538 141.008 79.7699C142.086 78.6861 143.459 77.9479 144.955 77.6489C146.45 77.3499 148 77.5034 149.408 78.0899C150.817 78.6765 152.021 79.6698 152.868 80.9443C153.715 82.2188 154.167 83.7172 154.167 85.25C154.164 87.3046 153.351 89.2743 151.906 90.7271C150.461 92.18 148.502 92.9973 146.458 93Z" fill="white"/>
</svg>
