<svg width="185" height="186" viewBox="0 0 185 186" fill="none" xmlns="http://www.w3.org/2000/svg">
<path d="M54.0547 31.6781C54.0547 27.0281 50.2969 23.5406 45.9609 23.5406H14.1641C9.53906 23.5406 5.78125 27.3188 5.78125 31.6781C5.78125 36.0375 9.25 39.8156 13.5859 39.8156V146.184C13.5859 155.194 20.8125 162.459 29.7734 162.459C38.7344 162.459 45.9609 155.194 45.9609 146.184V40.1063C50.2969 39.8156 54.0547 36.3281 54.0547 31.6781ZM40.1797 98.8125C37 98.5219 34.1094 97.3594 31.2188 95.9063C27.4609 93.5813 23.4141 92.4188 19.3672 92.1282V40.1063H40.1797V98.8125V98.8125ZM11.5625 31.6781C11.5625 30.225 12.7188 29.3531 13.875 29.3531H45.6719C47.1172 29.3531 47.9844 30.5156 47.9844 31.6781C47.9844 33.1313 46.8281 34.0031 45.6719 34.0031H43.0703H16.4766H13.875C12.7188 34.2938 11.5625 33.1313 11.5625 31.6781ZM29.7734 156.647C23.9922 156.647 19.3672 151.997 19.3672 146.184V97.9407C22.5469 98.2313 25.4375 99.3938 28.3281 100.847C32.0859 103.172 35.8437 104.334 40.1797 104.625V146.184C40.1797 151.997 35.5547 156.647 29.7734 156.647ZM175.172 140.372L130.656 98.8125V40.1063C134.992 40.1063 138.461 36.3281 138.461 31.9688C138.461 27.3188 134.703 23.8313 130.367 23.8313H98.5703C93.9453 23.8313 90.4766 27.6094 90.4766 31.9688C90.4766 36.3281 93.9453 40.1063 98.2812 40.1063V98.8125L54.0547 140.372C50.2969 144.15 48.8516 149.381 50.875 154.322C52.8984 159.263 57.2344 162.459 62.7266 162.459H166.789C171.992 162.459 176.617 159.263 178.641 154.322C180.375 149.381 178.93 144.15 175.172 140.372ZM96.2578 31.6781C96.2578 30.225 97.4141 29.3531 98.5703 29.3531H130.367C131.812 29.3531 132.68 30.5156 132.68 31.6781C132.68 33.1313 131.523 34.0031 130.367 34.0031H127.766H101.172H98.5703C97.4141 34.2938 96.2578 33.1313 96.2578 31.6781ZM103.195 102.3C103.773 101.719 104.062 100.847 104.062 100.266V40.1063H124.875V100.266C124.875 101.138 125.164 101.719 125.742 102.3L143.664 119.156C134.703 120.028 125.453 118.575 115.625 114.506C109.266 111.891 102.617 110.147 96.2578 108.984L103.195 102.3ZM172.859 152.288C171.992 154.322 169.969 156.647 166.5 156.647H62.4375C58.9688 156.647 56.9453 154.322 56.0781 152.288C55.2109 150.253 55.2109 147.056 57.8125 144.731L90.4766 114.216C97.9922 114.797 105.797 116.541 113.313 119.738C121.984 123.516 130.656 125.259 138.75 125.259C142.219 125.259 145.687 124.969 149.156 124.097L171.125 144.731C173.727 147.056 173.727 150.253 172.859 152.288Z" fill="white"/>
<path d="M24.5703 113.344C26.8828 113.344 28.9062 111.309 28.9062 108.984C28.9062 106.659 26.8828 104.625 24.5703 104.625C22.2578 104.625 20.2344 106.659 20.2344 108.984C20.2344 111.309 22.2578 113.344 24.5703 113.344ZM24.5703 107.531C25.4375 107.531 26.0156 108.112 26.0156 108.984C26.0156 109.856 25.4375 110.438 24.5703 110.438C23.7031 110.438 23.125 109.856 23.125 108.984C23.125 108.112 23.7031 107.531 24.5703 107.531ZM33.2422 122.062C30.9297 122.062 28.9062 124.097 28.9062 126.422C28.9062 128.747 30.9297 130.781 33.2422 130.781C35.5547 130.781 37.5781 128.747 37.5781 126.422C37.5781 124.097 35.5547 122.062 33.2422 122.062ZM33.2422 127.875C32.375 127.875 31.7969 127.294 31.7969 126.422C31.7969 125.55 32.375 124.969 33.2422 124.969C34.1094 124.969 34.6875 125.55 34.6875 126.422C34.6875 127.294 34.1094 127.875 33.2422 127.875ZM70.8203 142.406C68.5078 142.406 66.4844 144.441 66.4844 146.766C66.4844 149.091 68.5078 151.125 70.8203 151.125C73.1328 151.125 75.1562 149.091 75.1562 146.766C75.1562 144.441 73.1328 142.406 70.8203 142.406ZM70.8203 148.219C69.9531 148.219 69.375 147.638 69.375 146.766C69.375 145.894 69.9531 145.312 70.8203 145.312C71.6875 145.312 72.2656 145.894 72.2656 146.766C72.2656 147.638 71.6875 148.219 70.8203 148.219ZM131.523 130.781C129.211 130.781 127.188 132.816 127.188 135.141C127.188 137.466 129.211 139.5 131.523 139.5C133.836 139.5 135.859 137.466 135.859 135.141C135.859 132.816 133.836 130.781 131.523 130.781ZM131.523 136.594C130.656 136.594 130.078 136.013 130.078 135.141C130.078 134.269 130.656 133.688 131.523 133.688C132.391 133.688 132.969 134.269 132.969 135.141C132.969 136.013 132.391 136.594 131.523 136.594ZM108.398 145.312C106.086 145.312 104.062 147.347 104.062 149.672C104.062 151.997 106.086 154.031 108.398 154.031C110.711 154.031 112.734 151.997 112.734 149.672C112.734 147.347 110.711 145.312 108.398 145.312ZM108.398 151.125C107.531 151.125 106.953 150.544 106.953 149.672C106.953 148.8 107.531 148.219 108.398 148.219C109.266 148.219 109.844 148.8 109.844 149.672C109.844 150.544 109.266 151.125 108.398 151.125ZM93.9453 124.969C91.6328 124.969 89.6094 127.003 89.6094 129.328C89.6094 131.653 91.6328 133.688 93.9453 133.688C96.2578 133.688 98.2812 131.653 98.2812 129.328C98.2812 127.003 96.2578 124.969 93.9453 124.969ZM93.9453 130.781C93.0781 130.781 92.5 130.2 92.5 129.328C92.5 128.456 93.0781 127.875 93.9453 127.875C94.8125 127.875 95.3906 128.456 95.3906 129.328C95.3906 130.2 94.8125 130.781 93.9453 130.781ZM157.539 142.406C155.227 142.406 153.203 144.441 153.203 146.766C153.203 149.091 155.227 151.125 157.539 151.125C159.852 151.125 161.875 149.091 161.875 146.766C161.875 144.441 159.852 142.406 157.539 142.406ZM157.539 148.219C156.672 148.219 156.094 147.638 156.094 146.766C156.094 145.894 156.672 145.312 157.539 145.312C158.406 145.312 158.984 145.894 158.984 146.766C158.984 147.638 158.406 148.219 157.539 148.219ZM24.5703 142.406C22.2578 142.406 20.2344 144.441 20.2344 146.766C20.2344 149.091 22.2578 151.125 24.5703 151.125C26.8828 151.125 28.9062 149.091 28.9062 146.766C28.9062 144.441 26.8828 142.406 24.5703 142.406ZM24.5703 148.219C23.7031 148.219 23.125 147.638 23.125 146.766C23.125 145.894 23.7031 145.312 24.5703 145.312C25.4375 145.312 26.0156 145.894 26.0156 146.766C26.0156 147.638 25.4375 148.219 24.5703 148.219Z" fill="white"/>
</svg>
