<svg width="185" height="186" viewBox="0 0 185 186" fill="none" xmlns="http://www.w3.org/2000/svg">
<path d="M37.5781 107.531V84.2813H118.516V89.4835H124.297V84.2813C127.105 84.2732 129.815 83.2377 131.92 81.3682C134.024 79.4986 135.38 76.9228 135.734 74.1217C136.088 71.3206 135.416 68.4857 133.843 66.1463C132.271 63.8069 129.905 62.1231 127.187 61.4091C126.669 51.6207 122.86 42.2994 116.386 34.9711C109.911 27.6428 101.153 22.7417 91.5461 21.0703C90.5007 18.3227 88.6506 15.9589 86.2402 14.2912C83.8298 12.6236 80.9728 11.7307 78.0469 11.7307C75.1209 11.7307 72.2639 12.6236 69.8536 14.2912C67.4432 15.9589 65.593 18.3227 64.5477 21.0703C54.9762 22.8195 46.264 27.7436 39.8032 35.0559C33.3424 42.3682 29.5057 51.6468 28.9063 61.4091C26.1891 62.1231 23.8232 63.8069 22.2505 66.1463C20.6777 68.4857 20.0056 71.3206 20.3596 74.1217C20.7136 76.9228 22.0696 79.4986 24.1742 81.3682C26.2789 83.2377 28.9884 84.2732 31.7969 84.2813V107.531C31.7969 119.864 36.6696 131.691 45.3432 140.412C54.0167 149.132 65.7806 154.031 78.0469 154.031H80.9375V148.219H78.0469C67.3139 148.219 57.0205 143.932 49.4312 136.302C41.8418 128.671 37.5781 118.322 37.5781 107.531V107.531ZM63.5938 27.1735V43.5938H69.375V26.1563C69.375 23.8439 70.2886 21.6263 71.9149 19.9912C73.5412 18.3561 75.747 17.4375 78.0469 17.4375C80.3468 17.4375 82.5525 18.3561 84.1788 19.9912C85.8051 21.6263 86.7188 23.8439 86.7188 26.1563V43.5938H92.5V27.1735C98.283 28.5308 103.66 31.2562 108.185 35.123C112.71 38.9899 116.252 43.8866 118.516 49.4063H98.2813V55.2188H120.395C120.879 57.1273 121.218 59.0706 121.406 61.0313H34.6875C35.3369 53.0434 38.4827 45.4666 43.6747 39.3852C48.8667 33.3038 55.839 29.0294 63.5938 27.1735V27.1735ZM26.0156 72.6563C26.0156 71.1147 26.6247 69.6363 27.7089 68.5462C28.7931 67.4562 30.2636 66.8438 31.7969 66.8438H124.297C125.83 66.8438 127.301 67.4562 128.385 68.5462C129.469 69.6363 130.078 71.1147 130.078 72.6563C130.078 74.1978 129.469 75.6763 128.385 76.7663C127.301 77.8564 125.83 78.4688 124.297 78.4688H31.7969C30.2636 78.4688 28.7931 77.8564 27.7089 76.7663C26.6247 75.6763 26.0156 74.1978 26.0156 72.6563ZM158.984 122.063H149.33L156.094 115.204C156.365 114.934 156.58 114.612 156.726 114.258C156.873 113.904 156.949 113.524 156.949 113.14C156.949 112.757 156.873 112.377 156.726 112.023C156.58 111.669 156.365 111.347 156.094 111.077L143.895 98.8125C143.627 98.5401 143.307 98.3239 142.955 98.1764C142.602 98.0288 142.225 97.9529 141.843 97.9529C141.461 97.9529 141.084 98.0288 140.731 98.1764C140.379 98.3239 140.059 98.5401 139.791 98.8125L132.969 105.613V95.9063C132.969 95.1355 132.664 94.3963 132.122 93.8512C131.58 93.3062 130.845 93 130.078 93H112.734C111.968 93 111.232 93.3062 110.69 93.8512C110.148 94.3963 109.844 95.1355 109.844 95.9063V105.613L103.022 98.8125C102.753 98.5401 102.433 98.3239 102.081 98.1764C101.729 98.0288 101.351 97.9529 100.97 97.9529C100.588 97.9529 100.21 98.0288 99.8579 98.1764C99.5056 98.3239 99.1859 98.5401 98.9172 98.8125L86.7188 111.077C86.4478 111.347 86.2328 111.669 86.086 112.023C85.9393 112.377 85.8637 112.757 85.8637 113.14C85.8637 113.524 85.9393 113.904 86.086 114.258C86.2328 114.612 86.4478 114.934 86.7188 115.204L93.4828 122.063H83.8281C83.0615 122.063 82.3262 122.369 81.7841 122.914C81.242 123.459 80.9375 124.198 80.9375 124.969V142.406C80.9375 143.177 81.242 143.916 81.7841 144.461C82.3262 145.006 83.0615 145.313 83.8281 145.313H93.4828L86.7188 152.171C86.4478 152.441 86.2328 152.763 86.086 153.117C85.9393 153.471 85.8637 153.851 85.8637 154.235C85.8637 154.618 85.9393 154.998 86.086 155.352C86.2328 155.707 86.4478 156.028 86.7188 156.298L98.9172 168.563C99.1859 168.835 99.5056 169.051 99.8579 169.199C100.21 169.346 100.588 169.422 100.97 169.422C101.351 169.422 101.729 169.346 102.081 169.199C102.433 169.051 102.753 168.835 103.022 168.563L109.844 161.762V171.469C109.844 172.24 110.148 172.979 110.69 173.524C111.232 174.069 111.968 174.375 112.734 174.375H130.078C130.845 174.375 131.58 174.069 132.122 173.524C132.664 172.979 132.969 172.24 132.969 171.469V161.762L139.791 168.563C140.059 168.835 140.379 169.051 140.731 169.199C141.084 169.346 141.461 169.422 141.843 169.422C142.225 169.422 142.602 169.346 142.955 169.199C143.307 169.051 143.627 168.835 143.895 168.563L156.094 156.298C156.365 156.028 156.58 155.707 156.726 155.352C156.873 154.998 156.949 154.618 156.949 154.235C156.949 153.851 156.873 153.471 156.726 153.117C156.58 152.763 156.365 152.441 156.094 152.171L149.33 145.313H158.984C159.751 145.313 160.486 145.006 161.028 144.461C161.57 143.916 161.875 143.177 161.875 142.406V124.969C161.875 124.198 161.57 123.459 161.028 122.914C160.486 122.369 159.751 122.063 158.984 122.063ZM156.094 139.5H145.919C145.316 139.496 144.728 139.682 144.235 140.031C143.743 140.38 143.371 140.875 143.173 141.447C142.907 142.21 142.598 142.957 142.248 143.685C141.99 144.229 141.908 144.841 142.012 145.434C142.115 146.028 142.4 146.574 142.826 146.998L150.023 154.235L141.843 162.459L134.645 155.223C134.224 154.794 133.68 154.508 133.09 154.404C132.499 154.3 131.891 154.383 131.35 154.642C130.626 154.994 129.883 155.304 129.124 155.572C128.555 155.771 128.063 156.145 127.716 156.64C127.369 157.135 127.184 157.727 127.187 158.333V168.563H115.625V158.333C115.629 157.727 115.444 157.135 115.097 156.64C114.749 156.145 114.257 155.771 113.688 155.572C112.929 155.304 112.186 154.994 111.463 154.642C110.921 154.383 110.313 154.3 109.723 154.404C109.132 154.508 108.589 154.794 108.167 155.223L100.97 162.459L92.7891 154.235L99.9867 146.998C100.413 146.574 100.697 146.028 100.801 145.434C100.905 144.841 100.822 144.229 100.565 143.685C100.215 142.957 99.9058 142.21 99.6398 141.447C99.441 140.875 99.0695 140.38 98.5771 140.031C98.0848 139.682 97.4962 139.496 96.8938 139.5H86.7188V127.875H96.8938C97.4962 127.879 98.0848 127.693 98.5771 127.344C99.0695 126.995 99.441 126.5 99.6398 125.928C99.9058 125.165 100.215 124.418 100.565 123.69C100.822 123.146 100.905 122.534 100.801 121.941C100.697 121.347 100.413 120.801 99.9867 120.377L92.7891 113.14L100.97 104.916L108.167 112.152C108.589 112.581 109.132 112.867 109.723 112.971C110.313 113.075 110.921 112.992 111.463 112.733C112.186 112.381 112.929 112.071 113.688 111.803C114.257 111.604 114.749 111.23 115.097 110.735C115.444 110.24 115.629 109.648 115.625 109.043V98.8125H127.187V109.043C127.184 109.648 127.369 110.24 127.716 110.735C128.063 111.23 128.555 111.604 129.124 111.803C129.883 112.071 130.626 112.381 131.35 112.733C131.891 112.992 132.499 113.075 133.09 112.971C133.68 112.867 134.224 112.581 134.645 112.152L141.843 104.916L150.023 113.14L142.826 120.377C142.4 120.801 142.115 121.347 142.012 121.941C141.908 122.534 141.99 123.146 142.248 123.69C142.598 124.418 142.907 125.165 143.173 125.928C143.371 126.5 143.743 126.995 144.235 127.344C144.728 127.693 145.316 127.879 145.919 127.875H156.094V139.5ZM121.406 116.25C117.976 116.25 114.623 117.273 111.771 119.189C108.918 121.105 106.695 123.828 105.383 127.014C104.07 130.201 103.727 133.707 104.396 137.089C105.065 140.472 106.717 143.579 109.142 146.018C111.568 148.456 114.658 150.117 118.023 150.79C121.387 151.463 124.874 151.117 128.043 149.798C131.213 148.478 133.921 146.243 135.827 143.375C137.733 140.508 138.75 137.136 138.75 133.688C138.75 129.063 136.923 124.628 133.67 121.357C130.418 118.087 126.006 116.25 121.406 116.25ZM121.406 145.313C119.119 145.313 116.884 144.631 114.982 143.353C113.081 142.076 111.599 140.26 110.724 138.136C109.849 136.012 109.62 133.675 110.066 131.42C110.512 129.165 111.613 127.093 113.23 125.467C114.847 123.842 116.908 122.734 119.151 122.286C121.393 121.837 123.718 122.068 125.831 122.947C127.944 123.827 129.75 125.317 131.02 127.229C132.291 129.141 132.969 131.388 132.969 133.688C132.969 136.771 131.751 139.728 129.582 141.908C127.414 144.088 124.473 145.313 121.406 145.313ZM86.7188 49.4063H92.5V55.2188H86.7188V49.4063Z" fill="white"/>
</svg>
